<svg width="516" height="350" viewBox="0 0 516 350" fill="none" xmlns="http://www.w3.org/2000/svg">
<g clip-path="url(#clip0_443_769)">
<path d="M252.706 255.83C243.79 236.11 244.119 211.113 257.956 194.471C262.585 217.547 275.227 238.242 293.646 252.894C300.769 258.519 309.278 264.033 311.224 272.899C312.435 278.415 310.719 284.25 307.751 289.055C304.784 293.861 300.648 297.813 296.558 301.709L296.099 303.042C278.306 290.723 261.622 275.551 252.706 255.83Z" fill="#C0CCCC"/>
<path d="M258.341 194.712C255.157 212.149 257.522 230.716 265.262 246.691C266.935 250.145 268.934 253.503 271.609 256.281C274.237 258.969 277.537 260.904 281.166 261.885C284.531 262.867 288.088 263.482 291.155 265.266C294.389 267.146 296.396 270.3 297.178 273.918C298.134 278.343 297.443 282.849 296.615 287.232C295.694 292.098 294.662 297.138 295.995 302.029C296.157 302.622 295.227 302.838 295.066 302.246C292.746 293.736 297.257 285.342 296.626 276.785C296.332 272.792 294.833 268.864 291.409 266.551C288.416 264.528 284.749 263.89 281.333 262.925C277.746 261.911 274.525 260.363 271.784 257.794C268.98 255.167 266.846 251.88 265.092 248.484C261.171 240.753 258.49 232.455 257.148 223.892C255.561 214.127 255.656 204.163 257.429 194.431C257.539 193.828 258.45 194.114 258.341 194.712Z" fill="white"/>
<path d="M262.472 241.631C259.584 242.557 256.461 242.426 253.66 241.261C250.859 240.097 248.564 237.975 247.184 235.274C246.906 234.726 247.744 234.27 248.022 234.818C249.302 237.335 251.441 239.312 254.051 240.391C256.661 241.47 259.571 241.581 262.255 240.703C262.839 240.512 263.053 241.442 262.472 241.631Z" fill="white"/>
<path d="M279.394 261.611C282.28 256.124 282.992 249.75 281.388 243.761C281.228 243.167 282.157 242.951 282.317 243.544C283.975 249.779 283.22 256.411 280.204 262.115C279.917 262.658 279.108 262.152 279.394 261.611Z" fill="white"/>
<path d="M256.787 214.437C257.979 214.312 259.122 213.892 260.112 213.216C261.102 212.54 261.909 211.629 262.459 210.564C262.74 210.017 263.549 210.524 263.27 211.068C262.655 212.241 261.763 213.246 260.671 213.996C259.579 214.745 258.32 215.215 257.004 215.366C256.881 215.39 256.754 215.367 256.647 215.301C256.541 215.235 256.463 215.131 256.431 215.01C256.403 214.887 256.425 214.757 256.491 214.65C256.558 214.543 256.664 214.466 256.787 214.437Z" fill="white"/>
<path d="M331.232 194.665C331.067 195.011 330.901 195.357 330.739 195.711C328.537 200.38 326.717 205.221 325.298 210.185C325.182 210.567 325.071 210.956 324.966 211.34C321.675 223.336 320.64 235.838 321.913 248.212C322.425 253.135 323.31 258.012 324.561 262.801C326.289 269.415 328.689 276.448 328.148 283.052C328.099 283.742 328.007 284.428 327.874 285.106L297.761 303.499C297.672 303.506 297.586 303.52 297.497 303.528L296.328 304.317C296.246 304.075 296.167 303.822 296.085 303.579C296.037 303.439 295.995 303.294 295.947 303.154C295.918 303.059 295.888 302.964 295.856 302.88C295.846 302.848 295.836 302.816 295.83 302.792C295.798 302.708 295.776 302.626 295.748 302.549C295.299 301.135 294.86 299.715 294.429 298.289C294.425 298.282 294.425 298.282 294.427 298.271C291.174 287.401 288.8 276.163 288.208 264.922C288.19 264.584 288.168 264.239 288.164 263.892C287.925 258.824 288.1 253.744 288.689 248.705C289.02 245.946 289.49 243.206 290.098 240.495C291.683 233.493 294.359 226.784 298.029 220.614C305.346 208.315 316.516 198.494 330.185 194.927C330.535 194.836 330.878 194.749 331.232 194.665Z" fill="#C0CCCC"/>
<path d="M331.398 195.088C318.357 207.093 309.067 223.342 305.629 240.758C304.886 244.523 304.459 248.407 304.923 252.236C305.403 255.964 306.873 259.496 309.18 262.464C311.276 265.275 313.745 267.907 315.12 271.178C316.57 274.626 316.273 278.353 314.72 281.712C312.819 285.821 309.555 289.003 306.254 292.003C302.59 295.335 298.731 298.737 296.85 303.445C296.622 304.016 295.751 303.629 295.978 303.059C299.25 294.867 307.905 290.881 312.553 283.669C314.722 280.304 315.89 276.265 314.549 272.357C313.377 268.939 310.834 266.223 308.687 263.395C306.434 260.426 304.794 257.25 304.152 253.549C303.495 249.763 303.77 245.854 304.414 242.086C305.938 233.554 308.794 225.313 312.877 217.668C317.489 208.916 323.564 201.018 330.84 194.315C331.29 193.9 331.846 194.676 331.398 195.088Z" fill="white"/>
<path d="M306.448 235.038C303.585 234.038 301.17 232.053 299.635 229.437C298.1 226.821 297.545 223.744 298.069 220.757C298.177 220.153 299.121 220.292 299.012 220.897C298.519 223.678 299.037 226.544 300.471 228.977C301.905 231.41 304.162 233.251 306.834 234.166C307.415 234.365 307.025 235.236 306.448 235.038Z" fill="white"/>
<path d="M307.93 261.179C313.538 258.535 317.944 253.875 320.269 248.127C320.499 247.557 321.371 247.944 321.141 248.513C318.711 254.49 314.116 259.33 308.274 262.069C307.717 262.329 307.376 261.438 307.93 261.179Z" fill="white"/>
<path d="M318.282 209.902C319.309 210.52 320.474 210.872 321.671 210.929C322.869 210.985 324.061 210.743 325.142 210.225C325.696 209.957 326.036 210.849 325.486 211.115C324.289 211.682 322.972 211.947 321.649 211.888C320.325 211.829 319.037 211.446 317.896 210.774C317.783 210.72 317.695 210.624 317.65 210.508C317.605 210.391 317.606 210.261 317.653 210.145C317.704 210.03 317.799 209.939 317.917 209.894C318.035 209.848 318.166 209.851 318.282 209.902Z" fill="white"/>
<path d="M283.449 233.652C283.449 233.652 286.616 229.495 291.712 232.629C296.807 235.763 302.028 253.66 302.956 256.52C303.884 259.379 303.705 275.59 303.705 275.59L295.867 278.133L283.449 233.652Z" fill="#3F3D56"/>
<path d="M357.555 349.473H241.691L245.755 336.306C270.941 327.188 256.794 307.591 280.751 295.612C339.35 266.313 362.036 178.88 353.455 144.318L391.857 142.694C391.857 142.694 444.889 293.297 357.555 349.473Z" fill="#3F3D56"/>
<path d="M389.145 278.666L423.016 252.951L439.525 269.46L384.347 307.219L389.145 278.666Z" fill="#3F3D56"/>
<path opacity="0.2" d="M293.192 247.862L272.95 258.465C272.823 257.678 272.687 256.854 272.536 256.002C272.498 255.8 272.47 255.602 272.447 255.4L293.192 247.862Z" fill="black"/>
<path d="M273.857 271.797C274.979 271.797 275.889 270.705 275.889 269.359C275.889 268.012 274.979 266.921 273.857 266.921C272.735 266.921 271.825 268.012 271.825 269.359C271.825 270.705 272.735 271.797 273.857 271.797Z" fill="#3F3D56"/>
<path d="M188.513 182.04C188.471 181.949 188.43 181.858 188.389 181.767C188.405 181.767 188.421 181.77 188.437 181.77L188.513 182.04Z" fill="#2F2E41"/>
<path d="M191.35 61.7919C204.612 61.7919 215.362 51.0411 215.362 37.7793C215.362 24.5175 204.612 13.7667 191.35 13.7667C178.088 13.7667 167.337 24.5175 167.337 37.7793C167.337 51.0411 178.088 61.7919 191.35 61.7919Z" fill="#FF6584"/>
<path d="M234.683 19.3557C223.046 17.7826 209.76 24.0728 206.743 35.4222C205.983 33.4043 204.601 31.6803 202.797 30.4992C200.993 29.3181 198.86 28.7412 196.707 28.8517C194.553 28.9622 192.49 29.7544 190.817 31.114C189.143 32.4735 187.945 34.33 187.395 36.4151L188.727 37.3693C213.666 42.7624 239.482 42.6457 264.371 37.0273C256.276 28.5198 246.321 20.9287 234.683 19.3557Z" fill="#DFDFDF"/>
<path d="M184.775 51.3725C173.137 49.7995 159.851 56.0897 156.835 67.4391C156.075 65.4212 154.693 63.6971 152.889 62.516C151.084 61.335 148.952 60.758 146.798 60.8685C144.645 60.979 142.582 61.7713 140.908 63.1308C139.234 64.4904 138.036 66.3468 137.487 68.4319L138.819 69.3862C163.758 74.7792 189.574 74.6625 214.463 69.0442C206.368 60.5366 196.412 52.9455 184.775 51.3725Z" fill="#DFDFDF"/>
<path d="M342.32 300.287C344.368 283.824 354.57 267.604 370.271 262.246C364.079 279.191 364.08 297.78 370.275 314.724C372.687 321.25 376.05 328.257 373.781 334.834C372.369 338.927 368.915 342.058 365.054 344.016C361.192 345.974 356.907 346.907 352.675 347.821L351.843 348.51C345.125 333.341 340.273 316.75 342.32 300.287Z" fill="#C0CCCC"/>
<path d="M370.427 262.558C361.283 272.802 355.601 285.668 354.185 299.326C353.829 302.261 353.937 305.234 354.505 308.135C355.151 310.943 356.537 313.528 358.519 315.619C360.328 317.607 362.408 319.43 363.702 321.823C364.347 323.057 364.723 324.414 364.806 325.804C364.889 327.194 364.677 328.586 364.185 329.888C363.042 333.166 360.79 335.837 358.497 338.373C355.951 341.189 353.261 344.073 352.179 347.806C352.048 348.258 351.354 348.028 351.485 347.576C353.368 341.082 359.672 337.393 362.678 331.544C364.081 328.814 364.67 325.646 363.355 322.765C362.205 320.245 360.061 318.363 358.212 316.367C356.249 314.354 354.808 311.892 354.016 309.195C353.301 306.332 353.078 303.368 353.358 300.43C353.882 293.807 355.444 287.307 357.987 281.169C360.851 274.147 364.894 267.667 369.943 262.009C370.256 261.659 370.737 262.21 370.427 262.558Z" fill="white"/>
<path d="M354.382 294.901C352.123 294.353 350.132 293.019 348.765 291.138C347.399 289.257 346.745 286.952 346.921 284.634C346.958 284.165 347.689 284.2 347.652 284.67C347.484 286.829 348.093 288.976 349.369 290.725C350.645 292.474 352.505 293.709 354.611 294.207C355.069 294.316 354.837 295.009 354.382 294.901Z" fill="white"/>
<path d="M357.469 314.733C361.549 312.296 364.562 308.411 365.905 303.852C366.038 303.4 366.732 303.63 366.6 304.081C365.193 308.823 362.05 312.859 357.798 315.386C357.392 315.626 357.066 314.972 357.469 314.733Z" fill="white"/>
<path d="M361.529 274.84C362.359 275.234 363.274 275.416 364.192 275.37C365.109 275.323 366.001 275.05 366.787 274.573C367.189 274.328 367.515 274.982 367.116 275.226C366.245 275.748 365.26 276.05 364.246 276.103C363.232 276.157 362.221 275.962 361.3 275.534C361.21 275.501 361.135 275.435 361.092 275.349C361.049 275.264 361.04 275.165 361.067 275.073C361.098 274.981 361.164 274.905 361.25 274.861C361.337 274.818 361.437 274.81 361.529 274.84Z" fill="white"/>
<path d="M418.129 291.651C417.882 291.811 417.635 291.972 417.388 292.138C414.081 294.313 410.957 296.752 408.045 299.432C407.817 299.636 407.589 299.846 407.367 300.056C400.421 306.588 394.748 314.353 390.637 322.956C389.004 326.381 387.635 329.925 386.54 333.558C385.028 338.575 383.787 344.135 380.794 348.238C380.487 348.67 380.153 349.082 379.795 349.473H352.747C352.686 349.442 352.624 349.417 352.563 349.386L351.483 349.436C351.526 349.244 351.575 349.047 351.618 348.855C351.643 348.744 351.674 348.633 351.699 348.522C351.717 348.448 351.736 348.374 351.748 348.306C351.754 348.282 351.76 348.257 351.766 348.238C351.779 348.17 351.797 348.109 351.81 348.047C352.081 346.942 352.361 345.838 352.649 344.733C352.649 344.727 352.649 344.727 352.655 344.721C354.871 336.31 357.808 328.01 361.911 320.42C362.035 320.191 362.158 319.957 362.294 319.729C364.163 316.318 366.307 313.065 368.706 310.003C370.024 308.331 371.427 306.727 372.908 305.196C376.743 301.249 381.174 297.93 386.04 295.36C395.741 290.238 406.971 288.275 417.339 291.404C417.604 291.484 417.863 291.565 418.129 291.651Z" fill="#C0CCCC"/>
<path d="M418.068 291.994C404.599 294.669 392.316 301.52 382.963 311.574C380.911 313.702 379.207 316.141 377.915 318.8C376.739 321.431 376.29 324.328 376.613 327.192C376.861 329.868 377.424 332.576 377.017 335.266C376.788 336.639 376.272 337.949 375.501 339.109C374.731 340.269 373.724 341.253 372.546 341.996C369.661 343.925 366.254 344.702 362.896 345.346C359.168 346.061 355.284 346.745 352.173 349.074C351.796 349.356 351.38 348.754 351.756 348.473C357.17 344.421 364.424 345.271 370.347 342.411C373.11 341.076 375.488 338.901 376.173 335.809C376.771 333.105 376.193 330.311 375.919 327.604C375.562 324.815 375.894 321.982 376.886 319.351C378.039 316.635 379.645 314.134 381.637 311.957C386.043 306.984 391.204 302.735 396.93 299.365C403.444 295.483 410.574 292.743 418.012 291.265C418.472 291.174 418.525 291.904 418.068 291.994Z" fill="white"/>
<path d="M385.784 308.159C384.31 306.361 383.524 304.097 383.565 301.773C383.606 299.448 384.472 297.214 386.009 295.469C386.321 295.117 386.882 295.585 386.57 295.938C385.136 297.56 384.33 299.641 384.296 301.806C384.262 303.971 385.003 306.076 386.385 307.743C386.685 308.105 386.082 308.519 385.784 308.159Z" fill="white"/>
<path d="M376.309 325.852C381.034 326.363 385.778 325.075 389.596 322.243C389.974 321.963 390.389 322.564 390.012 322.844C386.034 325.783 381.094 327.114 376.178 326.571C375.71 326.519 375.843 325.8 376.309 325.852Z" fill="white"/>
<path d="M403.569 296.444C403.994 297.259 404.615 297.955 405.376 298.47C406.136 298.986 407.013 299.304 407.928 299.397C408.396 299.443 408.263 300.162 407.797 300.116C406.787 300.009 405.819 299.656 404.977 299.089C404.136 298.521 403.446 297.756 402.968 296.86C402.915 296.78 402.896 296.682 402.913 296.588C402.93 296.493 402.983 296.409 403.06 296.352C403.14 296.297 403.238 296.276 403.333 296.293C403.429 296.311 403.513 296.365 403.569 296.444Z" fill="white"/>
<path d="M456.469 287.579C453.009 290.623 448.581 292.34 443.973 292.426C439.365 292.513 434.876 290.962 431.304 288.05L431.229 287.988L431.226 287.891C431.184 286.278 430.932 284.678 430.478 283.129C430.455 284.244 430.293 285.351 429.994 286.425L429.897 286.787L429.637 286.518C429.412 286.287 429.194 286.051 428.99 285.819C427.788 284.455 426.782 282.93 425.999 281.289C422.449 273.831 417.104 267.169 410.114 261.489C408.916 260.515 407.801 259.442 406.781 258.283C402.473 253.381 400.05 247.106 399.947 240.581C399.843 234.055 402.066 227.707 406.217 222.671C410.368 217.635 416.175 214.241 422.6 213.097C429.025 211.953 435.648 213.133 441.282 216.426L441.453 216.527L441.364 216.705C440.712 218.059 439.85 219.302 438.811 220.388C440.24 219.616 441.562 218.661 442.743 217.547L442.868 217.429L443.009 217.527C444.86 218.807 446.547 220.309 448.034 221.999L448.194 222.182C449.328 223.48 450.723 224.524 452.288 225.246C453.853 225.968 455.552 226.352 457.276 226.373C460.087 226.421 462.855 227.076 465.389 228.296C467.923 229.515 470.163 231.269 471.954 233.436C473.746 235.604 475.047 238.134 475.767 240.852C476.487 243.57 476.61 246.412 476.128 249.182L476.105 249.311L475.98 249.349C473.346 250.15 471.156 250.426 469.176 250.198C471.099 251.035 473.147 251.548 475.237 251.716L475.507 251.737L475.421 251.994C474.332 255.264 472.394 258.185 469.806 260.46L469.732 260.525C469.706 260.548 469.68 260.571 469.654 260.594C467.725 262.255 466.147 264.284 465.013 266.563C463.879 268.841 463.211 271.324 463.049 273.864C462.921 276.473 462.272 279.03 461.143 281.385C460.013 283.741 458.424 285.846 456.469 287.579Z" fill="#94A89C"/>
<path opacity="0.15" d="M460.013 281.321C459.978 282.022 459.905 282.721 459.795 283.414C461.692 280.5 462.784 277.136 462.959 273.663C462.985 273.131 463.04 272.602 463.115 272.075C461.272 274.823 460.2 278.016 460.013 281.321Z" fill="black"/>
<path opacity="0.15" d="M466.141 257.655C467.687 258.324 469.316 258.785 470.984 259.024C471.627 258.346 472.22 257.622 472.759 256.859C470.209 257.616 468.073 257.878 466.141 257.655Z" fill="black"/>
<path opacity="0.15" d="M473.278 251.26C473.45 252.943 473.404 254.642 473.14 256.313C474.063 254.908 474.8 253.389 475.331 251.793L475.417 251.536L475.147 251.515C474.52 251.461 473.896 251.376 473.278 251.26Z" fill="black"/>
<path opacity="0.15" d="M471.476 232.78C469.684 230.747 467.487 229.109 465.027 227.971C462.566 226.834 459.896 226.221 457.185 226.173C455.462 226.151 453.763 225.767 452.198 225.045C450.633 224.323 449.238 223.279 448.103 221.982L447.943 221.798C446.457 220.108 444.77 218.606 442.919 217.326L442.778 217.228L442.653 217.346C441.471 218.46 440.149 219.415 438.721 220.187C439.76 219.101 440.622 217.858 441.274 216.504L441.363 216.326L441.191 216.226C437.456 214.04 433.257 212.768 428.937 212.513C424.617 212.259 420.298 213.03 416.332 214.763C412.366 216.496 408.867 219.142 406.118 222.485C403.37 225.828 401.451 229.773 400.517 233.999C402.315 230.841 404.721 228.072 407.597 225.851C410.472 223.63 413.76 222.002 417.269 221.062C420.778 220.121 424.44 219.886 428.041 220.37C431.641 220.854 435.11 222.049 438.246 223.883L438.418 223.984L438.329 224.162C437.676 225.516 436.815 226.759 435.775 227.845C437.204 227.073 438.526 226.118 439.708 225.004L439.833 224.886L439.974 224.983C441.825 226.264 443.512 227.766 444.998 229.456L445.158 229.639C446.293 230.937 447.688 231.98 449.253 232.703C450.817 233.425 452.517 233.809 454.24 233.83C458.746 233.906 463.086 235.543 466.52 238.461C469.955 241.38 472.27 245.399 473.072 249.834C474.025 249.663 474.966 249.434 475.89 249.148L476.015 249.11L476.037 248.981C476.543 246.112 476.396 243.165 475.606 240.36C474.816 237.556 473.405 234.965 471.476 232.78Z" fill="black"/>
<path d="M512.469 152.608C512.468 167.447 507.204 181.805 497.614 193.128C488.024 204.452 474.729 212.008 460.092 214.452L459.782 214.503L459.543 214.303C455.553 210.975 451.148 208.179 446.438 205.985C449.085 208.41 451.416 211.158 453.378 214.165L454.046 215.168L452.843 215.226C451.805 215.276 450.773 215.302 449.777 215.302C443.923 215.307 438.096 214.499 432.465 212.901C406.882 205.623 379.41 204.378 350.812 209.202C345.909 210.026 340.945 210.44 335.973 210.44C287.212 210.44 247.541 170.761 247.541 121.991C247.515 103.396 253.359 85.2669 264.241 70.1883C275.122 55.1097 290.486 43.8508 308.142 38.0165L308.75 37.8152L308.99 38.4085C310.877 42.8658 312.05 47.5924 312.465 52.4147C313.638 47.3185 314.14 42.091 313.959 36.8648L313.94 36.313L314.476 36.1785C321.507 34.4262 328.727 33.5407 335.973 33.5418L336.757 33.545C342.307 33.5615 347.797 32.4083 352.871 30.1606C357.944 27.9128 362.487 24.6211 366.203 20.4998C372.297 13.8026 379.769 8.50487 388.105 4.97115C396.442 1.43742 405.445 -0.248436 414.495 0.0295541C423.545 0.307544 432.428 2.54278 440.532 6.58149C448.636 10.6202 455.768 16.3665 461.439 23.4251L461.704 23.752L461.529 24.135C457.866 32.2083 453.876 38.0898 449.112 42.391C455.225 39.5235 460.82 35.6629 465.671 30.9661L466.296 30.3589L466.736 31.1129C472.325 40.6984 475.268 51.5966 475.264 62.6928L475.263 63.009C475.262 63.1207 475.262 63.2331 475.262 63.3448C475.262 80.3186 481.826 96.4065 493.301 107.533C499.336 113.392 504.14 120.397 507.432 128.137C510.724 135.877 512.436 144.197 512.469 152.608Z" fill="#94A89C"/>
<g opacity="0.15">
<path d="M435.824 4.45065C433.662 8.03796 431.003 11.3005 427.925 14.1408C432.332 12.0717 436.475 9.48197 440.267 6.42707C438.812 5.71066 437.331 5.05185 435.824 4.45065Z" fill="black"/>
<path d="M472.113 79.2828C475.523 82.5916 478.547 86.2757 481.128 90.2649C477.244 81.823 475.242 72.6373 475.262 63.3448C475.262 63.2331 475.262 63.1206 475.263 63.009L475.264 62.6927C475.268 51.5966 472.325 40.6984 466.736 31.1128L466.297 30.3589L465.67 30.9661C462.214 34.307 458.376 37.2294 454.236 39.6729C455.303 54.9363 461.676 69.1622 472.113 79.2828Z" fill="black"/>
<path d="M454.076 34.4426L454.075 34.7589C454.075 34.8705 454.075 34.983 454.075 35.0946C454.075 35.71 454.086 36.3239 454.103 36.9368C457.056 32.9648 459.547 28.67 461.529 24.135L461.704 23.752L461.44 23.4251C458.132 19.3093 454.322 15.6243 450.098 12.456C452.728 19.4881 454.075 26.9348 454.076 34.4426Z" fill="black"/>
<path d="M493.301 107.533C490.285 104.599 487.605 101.339 485.31 97.8116C489.419 106.565 491.445 116.152 491.229 125.82C491.014 135.487 488.562 144.974 484.067 153.536C479.572 162.098 473.156 169.503 465.32 175.17C457.485 180.837 448.443 184.613 438.905 186.202L438.595 186.253L438.355 186.053C434.365 182.725 429.96 179.929 425.25 177.734C427.897 180.16 430.229 182.908 432.191 185.914L432.858 186.918L431.655 186.976C430.617 187.026 429.585 187.051 428.589 187.051C422.735 187.056 416.909 186.249 411.277 184.651C385.694 177.372 358.222 176.128 329.625 180.951C324.721 181.776 319.758 182.19 314.785 182.189C293.111 182.206 272.192 174.229 256.033 159.784C270.228 189.701 300.723 210.44 335.973 210.44C340.945 210.44 345.909 210.026 350.812 209.202C379.41 204.378 406.882 205.623 432.465 212.901C438.096 214.499 443.923 215.307 449.777 215.302C450.773 215.302 451.804 215.276 452.843 215.226L454.046 215.168L453.378 214.165C451.416 211.158 449.085 208.41 446.438 205.985C451.148 208.179 455.553 210.975 459.543 214.303L459.782 214.503L460.092 214.452C471.546 212.547 482.246 207.496 490.997 199.863C499.747 192.231 506.205 182.317 509.65 171.228C513.094 160.139 513.389 148.31 510.502 137.063C507.615 125.816 501.66 115.592 493.301 107.533Z" fill="black"/>
</g>
<path d="M198.252 136.743C194.877 133.106 193.127 127.65 194.921 123.025C197.609 127.703 201.864 131.279 206.935 133.121C208.893 133.824 211.144 134.403 212.213 136.188C212.831 137.342 212.982 138.689 212.635 139.952C212.286 141.2 211.779 142.398 211.125 143.518L211.122 143.841C206.358 142.46 201.626 140.379 198.252 136.743Z" fill="#94A89C"/>
<path d="M365.869 242.21C362.495 238.574 360.745 233.117 362.539 228.493C365.227 233.17 369.482 236.746 374.552 238.588C376.51 239.292 378.761 239.87 379.83 241.655C380.448 242.809 380.6 244.157 380.253 245.419C379.904 246.667 379.396 247.866 378.743 248.985L378.74 249.308C373.975 247.927 369.244 245.846 365.869 242.21Z" fill="#94A89C"/>
<path d="M444.907 310.28C442.55 305.915 442.221 300.195 445.115 296.166C446.547 301.367 449.772 305.894 454.22 308.947C455.94 310.117 457.975 311.241 458.563 313.236C458.873 314.508 458.682 315.851 458.03 316.987C457.38 318.108 456.589 319.141 455.676 320.061L455.592 320.373C451.325 317.844 447.265 314.645 444.907 310.28Z" fill="#94A89C"/>
<path d="M501.878 226C499.521 221.636 499.192 215.915 502.086 211.886C503.518 217.088 506.743 221.615 511.191 224.667C512.911 225.838 514.946 226.961 515.534 228.957C515.844 230.229 515.653 231.571 515.001 232.707C514.351 233.828 513.56 234.861 512.647 235.781L512.564 236.093C508.296 233.564 504.236 230.365 501.878 226Z" fill="#94A89C"/>
<path d="M486.602 350H82.0152C81.8668 350 81.7246 349.94 81.6198 349.835C81.515 349.73 81.4562 349.588 81.4562 349.439C81.4562 349.291 81.515 349.149 81.6198 349.044C81.7246 348.938 81.8668 348.879 82.0152 348.879H486.602C486.75 348.879 486.892 348.938 486.997 349.044C487.102 349.149 487.161 349.291 487.161 349.439C487.161 349.588 487.102 349.73 486.997 349.835C486.892 349.94 486.75 350 486.602 350Z" fill="#CCCCCC"/>
</g>
<g clip-path="url(#clip1_443_769)">
<path d="M46.5982 304.882C46.4106 304.565 45.5986 304.905 45.4494 304.617C45.3006 304.331 46.055 303.894 46.486 302.896C46.5637 302.716 47.0535 301.583 46.6909 301.233C46.0036 300.57 42.8587 303.306 41.7581 302.411C41.5166 302.214 41.3478 301.822 40.6168 301.185C40.326 300.931 40.1501 300.817 39.9799 300.86C39.7385 300.92 39.7193 301.244 39.4604 301.88C39.072 302.835 38.8423 302.777 38.6161 303.539C38.4481 304.104 38.4865 304.433 38.2888 304.497C38.0091 304.587 37.7517 303.988 37.3972 304.041C37.0355 304.096 36.8168 304.794 36.7478 305.317C36.6181 306.298 36.9778 306.945 37.1772 307.626C37.3938 308.365 37.5224 309.49 37.0221 311.083L32.0701 325.056C33.1633 322.189 36.3288 314.329 37.659 311.408C38.0429 310.565 38.4669 309.709 39.3375 309.372C40.1756 309.047 41.3267 309.241 42.7942 308.887C42.9655 308.846 43.4411 308.724 43.501 308.444C43.5505 308.213 43.2707 308.083 43.3137 307.866C43.3714 307.575 43.9215 307.572 44.5975 307.236C45.0742 306.999 45.3712 306.718 45.6266 306.476C45.7036 306.403 46.8481 305.304 46.5982 304.882Z" fill="#F2F2F2"/>
<path d="M27.1156 312.239C26.9061 312.24 26.8382 312.737 26.6541 312.727C26.4708 312.717 26.4744 312.221 26.1099 311.721C26.0441 311.631 25.6299 311.063 25.3538 311.14C24.8306 311.287 25.2641 313.622 24.5078 313.905C24.3418 313.967 24.1008 313.937 23.5777 314.112C23.3697 314.182 23.2628 314.235 23.2346 314.331C23.1945 314.468 23.3476 314.57 23.5848 314.881C23.9405 315.348 23.846 315.444 24.1539 315.775C24.3825 316.021 24.5546 316.096 24.529 316.212C24.4927 316.376 24.1245 316.329 24.0486 316.519C23.9711 316.713 24.2501 317.022 24.4863 317.206C24.9297 317.553 25.3506 317.563 25.7417 317.661C26.1667 317.768 26.755 318.03 27.3911 318.735L32.8102 325.201C31.7205 323.836 28.7818 320.013 27.7342 318.516C27.4318 318.084 27.135 317.629 27.2207 317.103C27.3033 316.598 27.7305 316.088 27.9804 315.264C28.0096 315.168 28.0874 314.899 27.9674 314.789C27.8682 314.698 27.7241 314.798 27.6302 314.714C27.5042 314.602 27.6612 314.331 27.6918 313.901C27.7133 313.599 27.661 313.372 27.6161 313.176C27.6025 313.117 27.3944 312.238 27.1156 312.239Z" fill="#F2F2F2"/>
<path d="M31.2946 313.178L31.1684 312.05L31.2261 311.964C31.4929 311.569 31.6289 311.183 31.6305 310.816C31.6308 310.758 31.6281 310.699 31.6253 310.64C31.6145 310.405 31.6009 310.112 31.7532 309.771C31.8386 309.581 32.0785 309.141 32.4392 309.195C32.5363 309.209 32.6097 309.253 32.6655 309.306C32.6736 309.293 32.6821 309.28 32.691 309.265C32.8034 309.094 32.8923 309.02 32.978 308.949C33.0438 308.895 33.1118 308.839 33.2184 308.706C33.2652 308.648 33.3017 308.596 33.3324 308.553C33.4257 308.423 33.5475 308.268 33.7624 308.271C33.992 308.281 34.1122 308.472 34.1919 308.597C34.3342 308.822 34.3986 308.984 34.4413 309.091C34.4568 309.13 34.4745 309.174 34.4835 309.188C34.5575 309.297 35.1589 309.195 35.3854 309.158C35.8943 309.073 36.3347 309 36.5161 309.321C36.6461 309.551 36.5496 309.855 36.2205 310.249C36.1179 310.371 36.0088 310.465 35.912 310.538C35.9922 310.586 36.0641 310.659 36.0932 310.775C36.1617 311.048 35.927 311.322 35.3958 311.59C35.2638 311.657 35.0862 311.747 34.8374 311.79C34.7201 311.81 34.6146 311.815 34.5243 311.817C34.5224 311.87 34.5101 311.926 34.4783 311.985C34.385 312.156 34.1908 312.238 33.8981 312.218C33.5761 312.201 33.3109 312.14 33.077 312.086C32.8727 312.039 32.6967 311.999 32.5586 312.009C32.3023 312.029 32.1049 312.235 31.8731 312.501L31.2946 313.178Z" fill="#F2F2F2"/>
<path d="M31.88 306.46L30.8223 306.869L30.725 306.834C30.2753 306.676 29.8678 306.643 29.5132 306.734C29.4568 306.748 29.4012 306.766 29.3446 306.784C29.12 306.854 28.8409 306.941 28.4728 306.88C28.2675 306.846 27.7815 306.725 27.7426 306.362C27.7312 306.264 27.7557 306.182 27.7921 306.114C27.7774 306.11 27.7626 306.105 27.7466 306.1C27.5524 306.035 27.4588 305.967 27.3687 305.902C27.2993 305.852 27.2279 305.8 27.0725 305.731C27.0043 305.7 26.9456 305.678 26.8962 305.659C26.7468 305.602 26.5659 305.523 26.514 305.314C26.4663 305.089 26.6195 304.924 26.7208 304.815C26.9015 304.621 27.0415 304.517 27.1343 304.448C27.1682 304.423 27.2064 304.395 27.2173 304.383C27.3037 304.284 27.0528 303.727 26.9595 303.517C26.7484 303.045 26.5656 302.637 26.8301 302.38C27.0191 302.196 27.3373 302.212 27.8012 302.431C27.9456 302.499 28.0632 302.582 28.1583 302.657C28.1843 302.567 28.2371 302.479 28.3413 302.421C28.588 302.285 28.9123 302.443 29.3059 302.89C29.4041 303.001 29.5354 303.15 29.6401 303.38C29.6893 303.489 29.7208 303.59 29.7464 303.677C29.7974 303.665 29.8552 303.663 29.9196 303.679C30.109 303.726 30.2372 303.893 30.2925 304.181C30.3579 304.498 30.3657 304.77 30.3729 305.011C30.3795 305.22 30.3857 305.401 30.4297 305.532C30.5147 305.775 30.7631 305.915 31.0792 306.071L31.88 306.46Z" fill="#F2F2F2"/>
<path d="M31.2946 303.136L31.1684 302.008L31.2261 301.922C31.4929 301.527 31.6289 301.14 31.6305 300.774C31.6308 300.715 31.6281 300.657 31.6253 300.598C31.6145 300.362 31.6009 300.07 31.7532 299.729C31.8386 299.539 32.0785 299.098 32.4392 299.153C32.5363 299.166 32.6097 299.211 32.6655 299.263C32.6736 299.25 32.6821 299.237 32.691 299.223C32.8034 299.051 32.8923 298.978 32.978 298.907C33.0438 298.853 33.1118 298.797 33.2184 298.664C33.2652 298.605 33.3017 298.554 33.3324 298.511C33.4257 298.381 33.5475 298.226 33.7624 298.228C33.992 298.239 34.1122 298.429 34.1919 298.555C34.3342 298.78 34.3986 298.941 34.4413 299.049C34.4568 299.088 34.4745 299.132 34.4835 299.146C34.5575 299.255 35.1589 299.153 35.3854 299.116C35.8943 299.031 36.3347 298.957 36.5161 299.279C36.6461 299.509 36.5496 299.813 36.2205 300.207C36.1179 300.329 36.0088 300.422 35.912 300.495C35.9922 300.543 36.0641 300.617 36.0932 300.732C36.1617 301.006 35.927 301.28 35.3958 301.548C35.2638 301.615 35.0862 301.704 34.8374 301.747C34.7201 301.767 34.6146 301.772 34.5243 301.775C34.5224 301.827 34.5101 301.884 34.4783 301.942C34.385 302.114 34.1908 302.196 33.8981 302.176C33.5761 302.159 33.3109 302.098 33.077 302.044C32.8727 301.997 32.6967 301.957 32.5586 301.966C32.3023 301.987 32.1049 302.192 31.8731 302.459L31.2946 303.136Z" fill="#F2F2F2"/>
<path d="M32.4473 325.038L32.2112 324.89L31.9359 324.922C31.9316 324.896 31.9166 324.837 31.8941 324.745C31.7708 324.241 31.3952 322.705 31.0819 320.287C30.8632 318.599 30.7394 316.864 30.7139 315.129C30.6883 313.391 30.7704 312.075 30.8363 311.018C30.886 310.22 30.9464 309.46 31.0057 308.721C31.1635 306.744 31.3123 304.877 31.2016 302.81C31.1771 302.348 31.1257 301.388 30.5654 300.366C30.2403 299.773 29.7926 299.247 29.2345 298.802L29.5815 298.365C30.1976 298.856 30.6929 299.439 31.0539 300.098C31.6751 301.231 31.7311 302.277 31.7581 302.78C31.8707 304.884 31.7203 306.769 31.5609 308.765C31.5021 309.502 31.4417 310.258 31.3922 311.052C31.3269 312.1 31.2456 313.404 31.2709 315.12C31.2959 316.835 31.4183 318.549 31.634 320.215C31.9436 322.603 32.3138 324.115 32.4353 324.612C32.5001 324.877 32.5137 324.933 32.4473 325.038Z" fill="#F2F2F2"/>
<path d="M28.2128 299.688C28.19 299.688 28.1669 299.688 28.1435 299.686C27.6691 299.661 27.2298 299.376 26.8376 298.841C26.6538 298.59 26.5596 298.302 26.372 297.73C26.3429 297.642 26.2014 297.194 26.1155 296.577C26.0592 296.175 26.0662 296.006 26.1459 295.858C26.2343 295.692 26.3774 295.577 26.5384 295.499C26.5314 295.445 26.5371 295.39 26.5602 295.334C26.6551 295.102 26.9075 295.132 27.0441 295.147C27.1132 295.155 27.1994 295.167 27.2924 295.162C27.4387 295.155 27.5173 295.111 27.6365 295.046C27.7505 294.983 27.8922 294.905 28.1024 294.862C28.5169 294.776 28.8643 294.893 28.9788 294.932C29.5813 295.133 29.8783 295.602 30.2221 296.145C30.2906 296.254 30.5259 296.651 30.6812 297.195C30.7933 297.587 30.7775 297.761 30.7438 297.891C30.6752 298.157 30.5134 298.31 30.1024 298.647C29.6732 298.999 29.4578 299.176 29.2728 299.283C28.8422 299.532 28.5719 299.688 28.2128 299.688Z" fill="#F2F2F2"/>
<path d="M205.273 305.239C205.085 304.922 204.273 305.261 204.124 304.974C203.975 304.687 204.729 304.25 205.16 303.253C205.238 303.073 205.728 301.939 205.365 301.589C204.678 300.926 201.533 303.663 200.433 302.767C200.191 302.571 200.022 302.178 199.291 301.541C199 301.288 198.825 301.173 198.654 301.216C198.413 301.276 198.394 301.6 198.135 302.237C197.746 303.191 197.517 303.133 197.291 303.895C197.123 304.46 197.161 304.789 196.963 304.853C196.684 304.944 196.426 304.344 196.072 304.398C195.71 304.452 195.491 305.151 195.422 305.673C195.293 306.654 195.652 307.302 195.852 307.982C196.068 308.722 196.197 309.847 195.697 311.439L190.745 325.413C191.838 322.545 195.003 314.685 196.333 311.764C196.717 310.921 197.141 310.066 198.012 309.728C198.85 309.403 200.001 309.597 201.469 309.243C201.64 309.202 202.116 309.081 202.175 308.801C202.225 308.569 201.945 308.44 201.988 308.223C202.046 307.932 202.596 307.928 203.272 307.592C203.749 307.356 204.046 307.074 204.301 306.832C204.378 306.759 205.523 305.661 205.273 305.239Z" fill="#F2F2F2"/>
<path d="M185.79 312.595C185.58 312.596 185.513 313.093 185.328 313.083C185.145 313.074 185.149 312.577 184.784 312.077C184.718 311.987 184.304 311.419 184.028 311.497C183.505 311.643 183.938 313.979 183.182 314.261C183.016 314.323 182.775 314.293 182.252 314.469C182.044 314.539 181.937 314.592 181.909 314.688C181.869 314.824 182.022 314.927 182.259 315.238C182.615 315.704 182.52 315.8 182.828 316.131C183.057 316.377 183.229 316.453 183.203 316.569C183.167 316.732 182.799 316.686 182.723 316.875C182.645 317.069 182.924 317.378 183.161 317.563C183.604 317.91 184.025 317.919 184.416 318.018C184.841 318.125 185.429 318.386 186.065 319.092L191.485 325.558C190.395 324.193 187.456 320.369 186.409 318.872C186.106 318.44 185.809 317.985 185.895 317.46C185.978 316.954 186.405 316.444 186.655 315.621C186.684 315.524 186.762 315.256 186.642 315.145C186.543 315.054 186.398 315.155 186.305 315.071C186.179 314.958 186.336 314.687 186.366 314.258C186.388 313.955 186.335 313.728 186.29 313.533C186.277 313.474 186.069 312.594 185.79 312.595Z" fill="#F2F2F2"/>
<path d="M189.969 313.535L189.843 312.406L189.9 312.321C190.167 311.925 190.303 311.539 190.305 311.172C190.305 311.114 190.302 311.056 190.3 310.996C190.289 310.761 190.275 310.468 190.428 310.127C190.513 309.937 190.753 309.497 191.114 309.551C191.211 309.565 191.284 309.61 191.34 309.662C191.348 309.649 191.356 309.636 191.365 309.622C191.478 309.45 191.567 309.377 191.652 309.306C191.718 309.251 191.786 309.195 191.893 309.062C191.94 309.004 191.976 308.953 192.007 308.91C192.1 308.779 192.222 308.624 192.437 308.627C192.666 308.638 192.787 308.828 192.866 308.954C193.009 309.178 193.073 309.34 193.116 309.447C193.131 309.487 193.149 309.531 193.158 309.544C193.232 309.653 193.833 309.551 194.06 309.514C194.569 309.429 195.009 309.356 195.19 309.677C195.32 309.907 195.224 310.211 194.895 310.605C194.792 310.728 194.683 310.821 194.586 310.894C194.667 310.942 194.738 311.015 194.768 311.131C194.836 311.404 194.601 311.678 194.07 311.947C193.938 312.014 193.761 312.103 193.512 312.146C193.394 312.166 193.289 312.171 193.199 312.174C193.197 312.226 193.184 312.283 193.153 312.341C193.059 312.513 192.865 312.594 192.573 312.575C192.25 312.558 191.985 312.496 191.751 312.442C191.547 312.395 191.371 312.356 191.233 312.365C190.977 312.386 190.779 312.591 190.547 312.857L189.969 313.535Z" fill="#F2F2F2"/>
<path d="M190.554 306.817L189.497 307.225L189.399 307.191C188.95 307.033 188.542 306.999 188.188 307.09C188.131 307.105 188.076 307.122 188.019 307.14C187.794 307.21 187.515 307.298 187.147 307.237C186.942 307.202 186.456 307.081 186.417 306.718C186.406 306.621 186.43 306.538 186.466 306.471C186.452 306.466 186.437 306.461 186.421 306.456C186.227 306.391 186.133 306.323 186.043 306.258C185.974 306.208 185.902 306.157 185.747 306.087C185.679 306.057 185.62 306.034 185.571 306.015C185.421 305.958 185.24 305.879 185.188 305.671C185.141 305.445 185.294 305.281 185.395 305.172C185.576 304.977 185.716 304.873 185.809 304.805C185.843 304.78 185.881 304.751 185.892 304.739C185.978 304.64 185.727 304.083 185.634 303.873C185.423 303.402 185.24 302.994 185.504 302.736C185.694 302.552 186.012 302.569 186.476 302.788C186.62 302.856 186.738 302.938 186.833 303.013C186.859 302.923 186.911 302.835 187.016 302.778C187.262 302.642 187.587 302.8 187.98 303.246C188.078 303.357 188.21 303.506 188.315 303.737C188.364 303.845 188.395 303.946 188.421 304.033C188.472 304.021 188.53 304.019 188.594 304.035C188.783 304.082 188.912 304.249 188.967 304.538C189.032 304.854 189.04 305.127 189.047 305.367C189.054 305.577 189.06 305.757 189.104 305.889C189.189 306.132 189.438 306.271 189.754 306.428L190.554 306.817Z" fill="#F2F2F2"/>
<path d="M189.969 303.492L189.843 302.364L189.9 302.279C190.167 301.883 190.303 301.497 190.305 301.13C190.305 301.072 190.302 301.013 190.3 300.954C190.289 300.719 190.275 300.426 190.428 300.085C190.513 299.895 190.753 299.455 191.114 299.509C191.211 299.523 191.284 299.568 191.34 299.62C191.348 299.607 191.356 299.594 191.365 299.579C191.478 299.408 191.567 299.334 191.652 299.263C191.718 299.209 191.786 299.153 191.893 299.02C191.94 298.962 191.976 298.91 192.007 298.867C192.1 298.737 192.222 298.582 192.437 298.585C192.666 298.596 192.787 298.786 192.866 298.912C193.009 299.136 193.073 299.298 193.116 299.405C193.131 299.444 193.149 299.489 193.158 299.502C193.232 299.611 193.833 299.509 194.06 299.472C194.569 299.387 195.009 299.314 195.19 299.635C195.32 299.865 195.224 300.169 194.895 300.563C194.792 300.685 194.683 300.779 194.586 300.852C194.667 300.9 194.738 300.973 194.768 301.089C194.836 301.362 194.601 301.636 194.07 301.904C193.938 301.971 193.761 302.061 193.512 302.104C193.394 302.124 193.289 302.129 193.199 302.131C193.197 302.184 193.184 302.24 193.153 302.299C193.059 302.47 192.865 302.552 192.573 302.532C192.25 302.516 191.985 302.454 191.751 302.4C191.547 302.353 191.371 302.313 191.233 302.323C190.977 302.343 190.779 302.549 190.547 302.815L189.969 303.492Z" fill="#F2F2F2"/>
<path d="M191.122 325.394L190.886 325.246L190.61 325.278C190.606 325.252 190.591 325.193 190.568 325.101C190.445 324.597 190.07 323.062 189.756 320.644C189.538 318.956 189.414 317.22 189.388 315.485C189.363 313.747 189.445 312.431 189.511 311.374C189.56 310.576 189.621 309.817 189.68 309.077C189.838 307.1 189.987 305.233 189.876 303.166C189.851 302.705 189.8 301.744 189.24 300.722C188.915 300.129 188.467 299.603 187.909 299.158L188.256 298.721C188.872 299.213 189.367 299.796 189.728 300.454C190.349 301.587 190.405 302.634 190.432 303.137C190.545 305.24 190.395 307.125 190.235 309.121C190.176 309.858 190.116 310.614 190.067 311.409C190.001 312.456 189.92 313.761 189.945 315.476C189.97 317.191 190.093 318.905 190.308 320.572C190.618 322.959 190.988 324.472 191.11 324.968C191.174 325.234 191.188 325.289 191.122 325.394Z" fill="#F2F2F2"/>
<path d="M186.887 300.045C186.864 300.045 186.841 300.044 186.818 300.043C186.344 300.017 185.904 299.733 185.512 299.198C185.328 298.946 185.234 298.659 185.046 298.086C185.017 297.998 184.876 297.55 184.79 296.934C184.734 296.531 184.741 296.363 184.82 296.214C184.909 296.048 185.052 295.933 185.213 295.855C185.206 295.802 185.211 295.747 185.235 295.691C185.33 295.458 185.582 295.488 185.718 295.503C185.788 295.512 185.874 295.523 185.967 295.518C186.113 295.511 186.192 295.468 186.311 295.402C186.425 295.34 186.567 295.262 186.777 295.219C187.191 295.132 187.539 295.25 187.653 295.288C188.256 295.489 188.553 295.959 188.896 296.502C188.965 296.611 189.2 297.007 189.356 297.551C189.468 297.943 189.452 298.118 189.418 298.247C189.35 298.514 189.188 298.666 188.777 299.003C188.348 299.356 188.132 299.532 187.947 299.639C187.517 299.888 187.246 300.045 186.887 300.045Z" fill="#F2F2F2"/>
<path d="M207.895 324.89C207.895 325.056 207.761 325.19 207.596 325.19H0V324.59H207.596C207.761 324.59 207.895 324.725 207.895 324.89Z" fill="#E6E6E6"/>
<path d="M176.615 324.867C176.615 338.476 178.041 348.437 163.243 349.508C147.353 350.659 149.872 338.476 149.872 324.867C149.872 311.258 147.733 297.726 163.243 300.226C170.534 301.401 176.615 311.258 176.615 324.867Z" fill="#3F3D56"/>
<path d="M154.151 342.009C155.333 342.009 156.291 334.334 156.291 324.867C156.291 315.4 155.333 307.725 154.151 307.725C152.97 307.725 152.012 315.4 152.012 324.867C152.012 334.334 152.97 342.009 154.151 342.009Z" fill="#E6E6E6"/>
<path d="M69.5148 302.952C69.5148 314.962 70.7735 323.752 57.7148 324.698C43.6922 325.713 45.9148 314.962 45.9148 302.952C45.9148 290.943 44.0268 279.001 57.7148 281.207C64.149 282.244 69.5148 290.943 69.5148 302.952Z" fill="#3F3D56"/>
<path d="M49.6905 318.079C50.7332 318.079 51.5785 311.306 51.5785 302.951C51.5785 294.597 50.7332 287.824 49.6905 287.824C48.6477 287.824 47.8025 294.597 47.8025 302.951C47.8025 311.306 48.6477 318.079 49.6905 318.079Z" fill="#E6E6E6"/>
<path d="M89.7903 324.689C89.7903 338.298 91.2166 348.259 76.4189 349.33C60.529 350.481 63.0475 338.298 63.0475 324.689C63.0475 311.08 60.9081 297.548 76.4189 300.048C83.7099 301.223 89.7903 311.08 89.7903 324.689Z" fill="#3F3D56"/>
<path d="M67.3262 341.83C68.5077 341.83 69.4656 334.155 69.4656 324.688C69.4656 315.221 68.5077 307.546 67.3262 307.546C66.1446 307.546 65.1867 315.221 65.1867 324.688C65.1867 334.155 66.1446 341.83 67.3262 341.83Z" fill="#E6E6E6"/>
<path d="M47.5362 274.156V282.603L45.2185 286.477L45.9316 300.047L46.5086 300.405L46.1099 286.655C50.1724 285.141 51.5009 287.931 51.1019 293.441L50.3888 302.726L61.7991 309.868L63.2254 295.226L68.574 292.726L74.4574 317.546H173.031C177.095 317.546 180.342 314.16 180.177 310.093L178.933 279.335L175.577 275.973L172.467 239.952C171.692 230.97 164.087 224.132 155.086 224.327L93.4227 225.658C90.0774 225.73 86.7724 226.404 83.6656 227.649L68.7523 233.624L59.1262 243.264L57.6985 266.478L54.0588 266.161C51.4406 265.933 49.0528 267.666 48.4539 270.229L47.5362 274.156Z" fill="#CCCCCC"/>
<path d="M79.4491 307.546C81.4184 307.546 83.0148 305.947 83.0148 303.975C83.0148 302.003 81.4184 300.404 79.4491 300.404C77.4798 300.404 75.8834 302.003 75.8834 303.975C75.8834 305.947 77.4798 307.546 79.4491 307.546Z" fill="#3F3D56"/>
<path d="M87.6503 307.546C89.6196 307.546 91.216 305.947 91.216 303.975C91.216 302.003 89.6196 300.404 87.6503 300.404C85.681 300.404 84.0846 302.003 84.0846 303.975C84.0846 305.947 85.681 307.546 87.6503 307.546Z" fill="#3F3D56"/>
<path d="M167.523 307.546C169.492 307.546 171.089 305.947 171.089 303.975C171.089 302.003 169.492 300.404 167.523 300.404C165.554 300.404 163.957 302.003 163.957 303.975C163.957 305.947 165.554 307.546 167.523 307.546Z" fill="#3F3D56"/>
<path d="M175.724 307.546C177.693 307.546 179.29 305.947 179.29 303.975C179.29 302.003 177.693 300.404 175.724 300.404C173.755 300.404 172.158 302.003 172.158 303.975C172.158 305.947 173.755 307.546 175.724 307.546Z" fill="#3F3D56"/>
<path d="M170.16 270.432H86.3317C85.6908 270.432 85.0943 270.176 84.6521 269.712C84.2099 269.247 83.9828 268.638 84.0131 267.997L85.2378 242.062C85.2958 240.835 86.3012 239.862 87.5266 239.847L166.68 238.826C167.849 238.815 168.862 239.683 169.012 240.855L172.462 267.811C172.547 268.474 172.343 269.141 171.902 269.643C171.462 270.144 170.826 270.432 170.16 270.432Z" fill="white"/>
<path d="M74.6274 269.157H69.1883C68.5431 269.157 67.9217 268.885 67.4838 268.41C67.0458 267.935 66.8236 267.294 66.8743 266.649L68.4398 246.75C68.5257 245.658 69.3422 244.786 70.4255 244.631L76.046 243.827C76.7498 243.727 77.4505 243.949 77.9676 244.438C78.4849 244.927 78.7471 245.615 78.6872 246.325L76.9404 267.028C76.838 268.241 75.8435 269.157 74.6274 269.157Z" fill="white"/>
<path d="M62.1194 268.651C62.0632 268.651 62.0066 268.649 61.95 268.645L61.3114 268.599C60.6806 268.554 60.1086 268.262 59.7012 267.778C59.2938 267.293 59.1042 266.679 59.1671 266.049L60.924 248.452C61.0281 247.411 61.8208 246.563 62.8522 246.39C63.5551 246.272 64.2612 246.48 64.7897 246.959C65.3182 247.436 65.5954 248.119 65.5503 248.831L64.4319 266.473C64.3923 267.096 64.112 267.666 63.6423 268.077C63.2156 268.45 62.6802 268.651 62.1194 268.651Z" fill="white"/>
<path d="M53.2751 304.552L52.3501 284.334C52.3501 284.334 50.2107 281.477 48.7844 282.192C47.3581 282.906 45.2397 286.878 45.2397 286.878C45.2397 286.878 49.3739 286.606 49.2574 291.006C49.141 295.405 49.9657 302.522 49.9657 302.522L53.2751 304.552Z" fill="#CCCCCC"/>
<path d="M61.8861 309.835L62.3341 294.751L66.8698 289.386C66.8698 289.386 72.9315 288.075 72.8031 294.954C72.6746 301.833 74.6358 317.725 74.6358 317.725L70.2033 314.937C70.2033 314.937 69.1089 297.905 65.8998 296.12C62.6906 294.334 63.7604 295.762 63.7604 295.762L61.8861 309.835Z" fill="#CCCCCC"/>
<path d="M57.1623 271.168L53.648 269.157H54.0318C54.5799 269.157 55.0243 268.712 55.0243 268.163V259.437C55.0243 258.888 54.5799 258.443 54.0318 258.443H50.3116C49.7635 258.443 49.3191 258.888 49.3191 259.437V268.163C49.3191 268.712 49.7635 269.157 50.3116 269.157H52.2108L56.8085 271.788L57.1623 271.168Z" fill="#3F3D56"/>
<path d="M61.9101 284.242L59.1686 283.452C58.5062 283.261 57.8148 283.645 57.6243 284.308C57.4338 284.971 57.8164 285.664 58.4788 285.855L61.2203 286.644C61.8827 286.835 62.5741 286.452 62.7645 285.788C62.955 285.125 62.5725 284.433 61.9101 284.242Z" fill="#3F3D56"/>
<path d="M173.595 258.889L161.873 258.383C161.184 258.353 160.602 258.888 160.572 259.577C160.542 260.267 161.077 260.85 161.765 260.88L173.487 261.387C174.176 261.417 174.758 260.882 174.788 260.192C174.818 259.502 174.283 258.919 173.595 258.889Z" fill="#3F3D56"/>
<path d="M184.648 282.459L172.926 281.953C172.237 281.923 171.655 282.458 171.625 283.147C171.596 283.837 172.13 284.42 172.818 284.45L184.54 284.957C185.229 284.987 185.811 284.452 185.841 283.762C185.871 283.072 185.337 282.489 184.648 282.459Z" fill="#3F3D56"/>
<path d="M136.857 309.689C151.823 309.689 163.956 297.538 163.956 282.549C163.956 267.559 151.823 255.408 136.857 255.408C121.89 255.408 109.758 267.559 109.758 282.549C109.758 297.538 121.89 309.689 136.857 309.689Z" fill="#3F3D56"/>
<path d="M136.858 298.618C145.719 298.618 152.903 291.423 152.903 282.548C152.903 273.673 145.719 266.478 136.858 266.478C127.996 266.478 120.812 273.673 120.812 282.548C120.812 291.423 127.996 298.618 136.858 298.618Z" fill="#E6E6E6"/>
<path d="M172.761 228.648C172.897 230.232 173.824 231.446 174.831 231.359C175.838 231.271 176.543 229.917 176.406 228.332C176.36 227.698 176.163 227.084 175.832 226.542L175.17 219.837L172.035 220.215L173.021 226.786C172.787 227.377 172.698 228.015 172.761 228.648Z" fill="#FFB6B6"/>
<path d="M163.686 189.831C163.686 189.831 167.146 188.856 168.475 190.508C169.805 192.16 174.765 208.387 174.765 208.387L176.305 225.85L171.394 224.362L169.483 210.589L166.274 203.447L163.686 189.831Z" fill="#94A89C"/>
<path d="M162.558 179.326H152.015V189.339H162.558V179.326Z" fill="#2F2E41"/>
<path d="M157.175 184.428C160.014 184.428 162.315 182.123 162.315 179.279C162.315 176.436 160.014 174.131 157.175 174.131C154.335 174.131 152.034 176.436 152.034 179.279C152.034 182.123 154.335 184.428 157.175 184.428Z" fill="#FFB6B6"/>
<path d="M154.741 170.952C151.456 171.461 151.612 172.684 150.56 173.318C148.707 174.437 147.976 177.666 148.954 179.797C149.216 180.366 149.767 181.143 149.5 181.981C149.294 182.625 148.702 183.005 148.591 183.074C147.681 183.637 148.275 182.967 147.864 183.438C147.41 183.958 148.113 184.692 147.682 185.623C147.3 186.448 146.512 186.378 146.41 186.897C146.233 187.79 148.256 189.587 150.409 189.446C152.325 189.32 153.749 187.697 154.226 186.169C154.545 185.145 154.683 183.384 153.862 182.528C153.747 182.407 153.433 182.117 153.135 181.617C152.9 181.222 152.59 180.702 152.772 180.343C152.965 179.96 153.513 180.162 153.862 179.797C154.336 179.302 153.773 178.466 153.862 177.612C154.013 176.167 156.058 174.429 158.225 174.699C160.684 175.006 161.586 177.684 161.679 177.976C161.872 178.583 161.868 179.169 161.861 180.343C161.85 182.027 161.843 183.082 161.315 184.166C160.557 185.725 159.591 185.556 159.316 186.715C158.887 188.521 160.903 190.336 161.133 190.538C162.843 192.039 165.424 192.49 165.86 191.812C166.252 191.202 164.53 190.252 164.587 188.353C164.637 186.708 165.966 186.206 165.678 185.076C165.36 183.832 163.667 184.116 162.951 182.71C162.283 181.397 163.514 180.668 163.315 177.976C163.273 177.407 163.094 175.772 162.042 174.153C161.579 173.44 161.108 172.714 160.225 172.332C159.236 171.905 156.479 170.682 154.741 170.952Z" fill="#2F2E41"/>
<path d="M152.56 175.503C152.693 176.631 154.384 177.183 155.105 177.324C155.41 177.383 156.442 177.585 157.468 177.142C157.847 176.978 157.985 176.83 158.377 176.778C158.907 176.707 159.174 176.909 160.013 177.142C160.945 177.401 161.411 177.53 161.649 177.324C162.037 176.987 161.739 175.884 161.285 175.139C160.446 173.762 158.911 173.335 158.195 173.136C157.377 172.909 155.717 172.448 154.196 173.318C153.993 173.435 152.424 174.358 152.56 175.503Z" fill="#2F2E41"/>
<path d="M177.583 276.799L180.207 276.861L181.669 265.055L177.797 264.964L177.583 276.799Z" fill="#FFB6B6"/>
<path d="M186.585 282.281C186.585 282.725 186.27 283.085 185.882 283.085H180.674C180.674 283.085 180.162 281.021 178.072 280.134L177.928 283.085H175.241L175.567 278.339C175.567 278.339 174.848 275.801 176.341 274.503C177.833 273.205 176.624 273.386 176.624 273.386L177.211 270.449L181.271 270.927L181.301 275.537L183.271 280.114L186.161 281.543C186.418 281.67 186.585 281.96 186.585 282.281Z" fill="#2F2E41"/>
<path d="M165.653 253.676L168.219 253.123L166.889 241.301L163.103 242.117L165.653 253.676Z" fill="#FFB6B6"/>
<path d="M175.684 256.902C175.788 257.334 175.566 257.757 175.189 257.848L170.125 259.065C170.125 259.065 169.145 257.179 166.907 256.804L167.454 259.707L164.842 260.336L164.052 255.645C164.052 255.645 162.762 253.345 163.911 251.734C165.059 250.123 163.926 250.581 163.926 250.581L163.812 247.588L167.871 247.104L168.975 251.58L171.957 255.569L175.1 256.284C175.38 256.347 175.61 256.59 175.684 256.902Z" fill="#2F2E41"/>
<path d="M160.747 185.055L154.329 185.413L152.546 188.984L145.771 192.555L146.841 210.165L144.397 219.022L144.702 221.482L168.592 220.767L167.166 194.341L167.522 190.055L162.887 188.627L160.747 185.055Z" fill="#94A89C"/>
<path d="M144.88 218.089C144.88 218.089 139.532 227.554 144.88 228.892C147.26 229.488 149.78 229.889 151.845 230.151C154.318 230.464 156.594 228.765 157.004 226.302L162.709 245.944L168.414 244.515L169.484 234.291L176.416 241.234L175.545 269.157L181.964 268.799L188.739 238.444C188.739 238.444 189.095 236.302 183.747 233.445C178.398 230.588 168.771 221.303 168.771 221.303L152.368 216.303L144.88 218.089Z" fill="#2F2E41"/>
<path d="M156.112 224.339L146.841 218.267L158.251 206.125C158.251 206.125 164.67 203.626 166.452 213.268C168.235 222.91 169.305 231.481 169.305 231.481L156.112 224.339Z" fill="#2F2E41"/>
<path d="M136.984 206.214L137.39 203.447C137.686 201.431 136.351 199.671 134.539 199.237V198.09C134.539 197.104 133.741 196.305 132.757 196.305C131.772 196.305 130.974 197.104 130.974 198.09V199.62L124.199 201.06V199.162C124.199 198.175 123.401 197.376 122.416 197.376C121.431 197.376 120.633 198.175 120.633 199.162V200.966L119.96 200.79C117.948 200.264 116.359 202.575 117.61 204.238C117.627 204.26 117.643 204.281 117.66 204.303C119.33 206.453 119.807 208.364 119.807 208.364L118.614 214.816L119.973 228.228C120.148 229.957 121.633 231.252 123.367 231.188L136.558 230.699C138.29 230.634 139.677 229.235 139.724 227.5C139.892 221.318 139.911 207.863 136.984 206.214Z" fill="#3F3D56"/>
<path d="M125.174 229.39C124.99 229.39 124.833 229.247 124.819 229.059L124.104 219.502C124.089 219.305 124.236 219.134 124.432 219.119C124.627 219.104 124.8 219.252 124.815 219.448L125.53 229.006C125.545 229.202 125.398 229.374 125.201 229.388C125.192 229.389 125.183 229.39 125.174 229.39Z" fill="#FFB6B6"/>
<path d="M119.806 208.722C119.632 208.722 119.48 208.594 119.454 208.416C119.426 208.221 119.56 208.04 119.755 208.011L136.988 205.482C137.183 205.453 137.364 205.588 137.392 205.783C137.421 205.978 137.286 206.16 137.091 206.188L119.859 208.718C119.841 208.72 119.824 208.722 119.806 208.722Z" fill="#FFB6B6"/>
<path d="M18.5761 312.197C18.456 311.994 17.9363 312.211 17.8407 312.027C17.7455 311.844 18.2284 311.564 18.5043 310.925C18.554 310.81 18.8676 310.085 18.6355 309.861C18.1955 309.436 16.1824 311.188 15.4779 310.615C15.3233 310.489 15.2153 310.238 14.7474 309.83C14.5612 309.668 14.4487 309.595 14.3397 309.622C14.1851 309.66 14.1729 309.868 14.0071 310.275C13.7586 310.886 13.6115 310.849 13.4667 311.337C13.3592 311.698 13.3837 311.909 13.2572 311.95C13.0782 312.008 12.9134 311.624 12.6865 311.658C12.455 311.693 12.315 312.14 12.2708 312.475C12.1878 313.103 12.418 313.517 12.5456 313.953C12.6843 314.426 12.7666 315.146 12.4464 316.166L9.27655 325.11C9.97635 323.275 12.0026 318.244 12.854 316.374C13.0998 315.834 13.3712 315.287 13.9285 315.071C14.465 314.863 15.2018 314.987 16.1411 314.76C16.2508 314.734 16.5553 314.656 16.5936 314.477C16.6253 314.328 16.4462 314.246 16.4737 314.107C16.5106 313.921 16.8627 313.918 17.2955 313.703C17.6006 313.552 17.7907 313.372 17.9542 313.217C18.0035 313.17 18.7361 312.467 18.5761 312.197Z" fill="#F2F2F2"/>
<path d="M6.10511 316.905C5.97102 316.906 5.92752 317.224 5.80972 317.218C5.69234 317.212 5.69468 316.894 5.46135 316.574C5.41927 316.516 5.1541 316.153 4.9774 316.202C4.64247 316.296 4.91998 317.791 4.43581 317.972C4.32956 318.011 4.17533 317.992 3.84051 318.104C3.70731 318.149 3.63895 318.183 3.62086 318.245C3.59521 318.332 3.69321 318.398 3.84504 318.597C4.07273 318.895 4.01222 318.957 4.20932 319.169C4.35563 319.326 4.46581 319.375 4.4494 319.449C4.42616 319.553 4.19052 319.524 4.14189 319.645C4.09228 319.769 4.2709 319.967 4.42211 320.085C4.70588 320.307 4.97535 320.313 5.22568 320.376C5.49771 320.445 5.87432 320.612 6.28144 321.064L9.75026 325.203C9.05271 324.329 7.17167 321.881 6.50108 320.923C6.3075 320.647 6.11752 320.355 6.17241 320.019C6.22526 319.695 6.49872 319.369 6.65869 318.842C6.67737 318.78 6.7272 318.608 6.65037 318.538C6.58685 318.479 6.49463 318.544 6.43451 318.49C6.35388 318.418 6.45437 318.244 6.47392 317.97C6.4877 317.776 6.45424 317.63 6.42546 317.505C6.41678 317.468 6.2836 316.905 6.10511 316.905Z" fill="#F2F2F2"/>
<path d="M8.78013 317.507L8.69934 316.784L8.73625 316.73C8.90705 316.476 8.9941 316.229 8.99515 315.994C8.99532 315.957 8.99358 315.92 8.99184 315.882C8.98488 315.731 8.97617 315.544 9.07367 315.326C9.12834 315.204 9.2819 314.922 9.51277 314.957C9.57493 314.966 9.62193 314.994 9.65763 315.028L9.67399 315.002C9.7459 314.892 9.80283 314.845 9.85768 314.8C9.89981 314.765 9.94334 314.729 10.0116 314.644C10.0415 314.606 10.0649 314.574 10.0845 314.546C10.1443 314.463 10.2223 314.363 10.3598 314.365C10.5067 314.372 10.5837 314.494 10.6347 314.574C10.7258 314.718 10.767 314.822 10.7944 314.89C10.8043 314.915 10.8156 314.944 10.8214 314.952C10.8687 315.022 11.2537 314.957 11.3987 314.933C11.7244 314.879 12.0063 314.832 12.1225 315.038C12.2057 315.185 12.1439 315.379 11.9332 315.631C11.8676 315.71 11.7978 315.77 11.7358 315.816C11.7871 315.847 11.8331 315.894 11.8517 315.968C11.8956 316.143 11.7453 316.318 11.4053 316.49C11.3209 316.533 11.2072 316.59 11.0479 316.618C10.9728 316.631 10.9053 316.634 10.8475 316.635C10.8463 316.669 10.8384 316.705 10.8181 316.743C10.7583 316.852 10.634 316.905 10.4467 316.892C10.2405 316.881 10.0708 316.842 9.92106 316.807C9.7903 316.777 9.67765 316.752 9.58921 316.758C9.4252 316.771 9.2988 316.903 9.15046 317.073L8.78013 317.507Z" fill="#F2F2F2"/>
<path d="M9.15486 313.207L8.47778 313.468L8.41554 313.446C8.12768 313.345 7.86679 313.323 7.63984 313.382C7.60375 313.391 7.56815 313.402 7.53188 313.414C7.38814 313.459 7.20947 313.515 6.97389 313.476C6.84247 313.453 6.53136 313.376 6.50648 313.144C6.49914 313.081 6.51484 313.028 6.53812 312.985L6.50904 312.976C6.3847 312.934 6.32479 312.891 6.26709 312.849C6.22272 312.817 6.17699 312.784 6.07749 312.74C6.03385 312.72 5.99627 312.706 5.96467 312.694C5.86902 312.657 5.75324 312.607 5.72004 312.473C5.6895 312.329 5.78754 312.224 5.8524 312.154C5.96808 312.029 6.05765 311.963 6.11707 311.919C6.13881 311.903 6.16322 311.885 6.17018 311.877C6.22554 311.814 6.06491 311.457 6.00522 311.323C5.87004 311.021 5.75307 310.76 5.92235 310.595C6.04338 310.477 6.247 310.488 6.54396 310.628C6.6364 310.671 6.71171 310.724 6.77256 310.772C6.78917 310.715 6.82299 310.658 6.88967 310.621C7.04763 310.534 7.25516 310.635 7.50713 310.921C7.56998 310.992 7.65406 311.088 7.72107 311.235C7.75257 311.305 7.77274 311.369 7.78908 311.425C7.82173 311.418 7.85875 311.416 7.89995 311.426C8.0212 311.456 8.10326 311.563 8.13865 311.748C8.1805 311.951 8.18549 312.125 8.19013 312.279C8.19433 312.413 8.19831 312.529 8.22647 312.613C8.28087 312.768 8.43992 312.857 8.64225 312.958L9.15486 313.207Z" fill="#F2F2F2"/>
<path d="M8.78013 311.079L8.69934 310.357L8.73625 310.302C8.90705 310.049 8.9941 309.801 8.99515 309.567C8.99532 309.529 8.99358 309.492 8.99184 309.454C8.98488 309.303 8.97617 309.116 9.07367 308.898C9.12834 308.776 9.2819 308.494 9.51277 308.529C9.57493 308.538 9.62193 308.567 9.65763 308.6L9.67399 308.574C9.7459 308.464 9.80283 308.417 9.85768 308.372C9.89981 308.337 9.94334 308.301 10.0116 308.216C10.0415 308.179 10.0649 308.146 10.0845 308.118C10.1443 308.035 10.2223 307.936 10.3598 307.937C10.5067 307.944 10.5837 308.066 10.6347 308.147C10.7258 308.29 10.767 308.394 10.7944 308.463C10.8043 308.488 10.8156 308.516 10.8214 308.525C10.8687 308.594 11.2537 308.529 11.3987 308.506C11.7244 308.451 12.0063 308.404 12.1225 308.61C12.2057 308.757 12.1439 308.952 11.9332 309.204C11.8676 309.282 11.7978 309.342 11.7358 309.389C11.7871 309.419 11.8331 309.466 11.8517 309.54C11.8956 309.715 11.7453 309.891 11.4053 310.062C11.3209 310.105 11.2072 310.162 11.0479 310.19C10.9728 310.203 10.9053 310.206 10.8475 310.208C10.8463 310.241 10.8384 310.277 10.8181 310.315C10.7583 310.425 10.634 310.477 10.4467 310.464C10.2405 310.454 10.0708 310.414 9.92106 310.38C9.7903 310.35 9.67765 310.324 9.58921 310.33C9.4252 310.343 9.2988 310.475 9.15046 310.645L8.78013 311.079Z" fill="#F2F2F2"/>
<path d="M9.51798 325.099L9.36686 325.004L9.19066 325.024C9.18788 325.007 9.1783 324.97 9.16385 324.911C9.08498 324.588 8.84453 323.605 8.64396 322.057C8.50398 320.977 8.42476 319.866 8.4084 318.756C8.39203 317.643 8.44461 316.801 8.48675 316.124C8.51861 315.613 8.55726 315.127 8.59521 314.654C8.6962 313.388 8.79143 312.193 8.72057 310.87C8.7049 310.575 8.672 309.96 8.31333 309.306C8.10527 308.926 7.81869 308.589 7.46143 308.305L7.68359 308.025C8.07794 308.34 8.39499 308.713 8.62603 309.134C9.02369 309.859 9.05956 310.529 9.0768 310.851C9.14888 312.198 9.0526 313.404 8.95057 314.682C8.91296 315.154 8.87431 315.638 8.84263 316.146C8.80084 316.817 8.74878 317.652 8.76498 318.75C8.78099 319.847 8.85934 320.945 8.99741 322.011C9.19554 323.54 9.4325 324.508 9.51033 324.826C9.55177 324.996 9.56047 325.031 9.51798 325.099Z" fill="#F2F2F2"/>
<path d="M6.80746 308.872C6.79284 308.872 6.77804 308.872 6.76307 308.871C6.45943 308.854 6.17824 308.672 5.92718 308.33C5.80948 308.169 5.74924 307.985 5.62911 307.618C5.61048 307.562 5.51994 307.275 5.46492 306.881C5.42889 306.623 5.43341 306.515 5.48443 306.42C5.54101 306.314 5.63259 306.24 5.73566 306.19C5.73113 306.156 5.73479 306.121 5.74959 306.085C5.81035 305.936 5.97193 305.956 6.05932 305.965C6.10355 305.97 6.15874 305.978 6.21828 305.975C6.31196 305.97 6.36227 305.942 6.43853 305.9C6.51148 305.86 6.60219 305.81 6.73678 305.783C7.00212 305.727 7.22445 305.803 7.29775 305.827C7.6834 305.956 7.87352 306.256 8.09359 306.604C8.13747 306.674 8.28807 306.928 8.38749 307.276C8.45922 307.527 8.44912 307.639 8.42753 307.722C8.38365 307.892 8.28006 307.99 8.01698 308.205C7.74224 308.431 7.60435 308.544 7.48596 308.613C7.21034 308.772 7.03729 308.872 6.80746 308.872Z" fill="#F2F2F2"/>
<path d="M217.973 271.51L218.137 258.748L213.246 257.401L213.394 271.511L212.269 281.939L212.298 281.95C211.826 282.425 211.443 283.183 211.28 284.079C210.983 285.715 211.528 287.185 212.498 287.361C213.468 287.538 214.495 286.356 214.792 284.72C214.914 284.048 214.893 283.407 214.76 282.869L214.803 282.885L217.973 271.51Z" fill="#A0616A"/>
<path d="M209.078 241.512C209.078 241.512 211.298 239.812 212.865 242.297C214.432 244.781 218.74 257.335 218.74 257.335C218.74 257.335 219.986 263.089 219.69 263.939C219.393 264.789 219.002 272.27 219.002 272.27L212.88 271.158L213.028 263.939L207.194 254.613L209.078 241.512Z" fill="#CCCCCC"/>
<path d="M168.078 236.877L176.657 246.314L181.15 243.954L171.423 233.745L165.137 225.356L165.109 225.368C165.129 224.698 164.892 223.882 164.4 223.116C163.503 221.717 162.103 221.016 161.273 221.55C160.444 222.084 160.5 223.651 161.398 225.049C161.766 225.623 162.219 226.077 162.683 226.379L162.64 226.397L168.078 236.877Z" fill="#A0616A"/>
<path d="M195.516 252.715C195.516 252.715 195.053 255.474 192.214 254.73C189.375 253.986 177.67 247.759 177.67 247.759C177.67 247.759 172.837 244.406 172.474 243.582C172.112 242.759 167.298 237.024 167.298 237.024L172.53 233.651L177.342 239.027L187.962 241.853L195.516 252.715Z" fill="#CCCCCC"/>
<path d="M197.141 234.298C200.904 234.298 203.955 231.243 203.955 227.474C203.955 223.706 200.904 220.65 197.141 220.65C193.379 220.65 190.328 223.706 190.328 227.474C190.328 231.243 193.379 234.298 197.141 234.298Z" fill="#A0616A"/>
<path d="M209.094 347.014L204.865 347.013L202.853 330.678L209.094 330.678L209.094 347.014Z" fill="#A0616A"/>
<path d="M194.606 346.918C194.474 347.14 194.405 347.857 194.405 348.115C194.405 348.909 195.047 349.552 195.84 349.552H208.935C209.476 349.552 209.915 349.113 209.915 348.572V348.026C209.915 348.026 210.562 346.384 209.229 344.362C209.229 344.362 207.571 345.946 205.094 343.465L204.363 342.139L199.076 346.012L196.145 346.374C195.504 346.453 194.936 346.361 194.606 346.918Z" fill="#2F2E41"/>
<path d="M196.97 347.014L192.742 347.013L190.73 330.678L196.971 330.678L196.97 347.014Z" fill="#A0616A"/>
<path d="M182.483 346.918C182.351 347.14 182.281 347.857 182.281 348.115C182.281 348.909 182.924 349.552 183.717 349.552H196.812C197.353 349.552 197.791 349.113 197.791 348.572V348.026C197.791 348.026 198.439 346.384 197.105 344.362C197.105 344.362 195.448 345.946 192.971 343.465L192.24 342.139L186.953 346.012L184.022 346.374C183.381 346.453 182.812 346.361 182.483 346.918Z" fill="#2F2E41"/>
<path d="M212.093 276.121L184.637 277.549L190.699 339.688L196.76 339.33L198.9 301.833L199.791 288.441L203.427 338.303L209.597 338.259L212.093 276.121Z" fill="#2F2E41"/>
<path d="M203.959 236.123L193.561 235.766L186.598 242.701V265.417L183.879 279.692C183.879 279.692 202.166 277.906 205.752 281.477C209.338 285.049 215.792 282.549 215.792 282.549L212.565 263.662L211.131 241.837L203.959 236.123Z" fill="#CCCCCC"/>
<path d="M200.141 234.159L194.345 232.788L193.45 229.268C193.45 229.268 193.429 227.609 192.647 227.424C191.865 227.239 190.485 226.086 190.485 226.086L191.822 223.921C191.822 223.921 188.601 223.573 189.568 222.974C190.535 222.376 190.675 222.646 190.812 221.201C191.096 218.213 200.226 218.649 200.936 220.289C200.936 220.289 202.109 220.566 202.706 221.535C203.303 222.503 203.602 222.987 203.993 223.08C204.384 223.172 204.59 224.048 204.59 224.048C204.59 224.048 205.97 225.201 205.486 225.5C205.003 225.799 204.633 227.366 204.633 227.366C204.633 227.366 205.92 228.911 203.041 232.365L201.508 234.836L200.141 234.159Z" fill="#2F2E41"/>
<path d="M207.584 244.195L207.99 241.428C208.286 239.411 206.951 237.651 205.14 237.218V236.071C205.14 235.085 204.341 234.285 203.357 234.285C202.372 234.285 201.574 235.085 201.574 236.071V237.601L194.799 239.041V237.142C194.799 236.156 194.001 235.357 193.016 235.357C192.032 235.357 191.233 236.156 191.233 237.142V238.946L190.56 238.77C188.549 238.245 186.96 240.556 188.211 242.219C188.227 242.24 188.243 242.262 188.26 242.283C189.93 244.434 190.407 246.345 190.407 246.345L189.214 252.796L190.573 266.209C190.748 267.938 192.233 269.233 193.967 269.169L207.158 268.679C208.89 268.615 210.277 267.216 210.324 265.481C210.492 259.299 210.511 245.844 207.584 244.195Z" fill="#3F3D56"/>
<path d="M195.774 267.37C195.59 267.37 195.433 267.227 195.419 267.04L194.704 257.482C194.689 257.286 194.836 257.114 195.032 257.1C195.227 257.084 195.4 257.232 195.415 257.429L196.13 266.986C196.145 267.183 195.998 267.355 195.801 267.369C195.792 267.37 195.783 267.37 195.774 267.37Z" fill="#FFB6B6"/>
<path d="M190.406 246.702C190.232 246.702 190.08 246.575 190.054 246.397C190.026 246.202 190.16 246.021 190.355 245.992L207.588 243.463C207.783 243.434 207.964 243.569 207.992 243.764C208.021 243.959 207.886 244.141 207.691 244.169L190.459 246.699C190.441 246.701 190.424 246.702 190.406 246.702Z" fill="#FFB6B6"/>
<path d="M191.193 267.942L184.459 251.658L186.241 252.372L193.413 266.8L191.193 267.942Z" fill="#3F3D56"/>
<path d="M233.212 349.531C233.212 349.697 233.078 349.831 232.912 349.831H25.3165V349.231H232.912C233.078 349.231 233.212 349.366 233.212 349.531Z" fill="#E6E6E6"/>
<path d="M159.628 222.221C160.785 223.311 162.283 223.596 162.976 222.859C163.668 222.122 163.291 220.641 162.134 219.551C161.678 219.11 161.123 218.784 160.515 218.601L155.557 214.046L153.473 216.422L158.582 220.66C158.801 221.257 159.16 221.792 159.628 222.221Z" fill="#FFB6B6"/>
<path d="M155.385 198.623C155.385 198.623 149.34 191.081 147.02 191.662C144.167 192.376 144.88 195.233 141.929 202.874C141.19 204.788 140.414 206.642 141.906 208.049L146.018 211.928L154.784 219.33L158.31 215.633L151.304 206.585L155.385 198.623Z" fill="#94A89C"/>
</g>
<g clip-path="url(#clip2_443_769)">
<path d="M30.8208 78.4299C30.7848 78.4299 30.7502 78.4162 30.7239 78.3917C30.6976 78.3672 30.6816 78.3336 30.6791 78.2977C30.5861 77.0343 30.0195 75.8527 29.0926 74.9892C28.1658 74.1257 26.947 73.6441 25.6803 73.6407C25.5287 73.6407 25.3694 73.6484 25.2069 73.6636C25.1797 73.6661 25.1524 73.6608 25.1281 73.6482C25.1039 73.6357 25.0838 73.6164 25.0702 73.5927C24.4884 72.5742 23.6194 71.7496 22.5718 71.2218C21.5243 70.6941 20.3445 70.4865 19.1797 70.625C18.0149 70.7636 16.9167 71.2421 16.0221 72.0008C15.1275 72.7596 14.4762 73.765 14.1495 74.8915C14.1409 74.9217 14.1224 74.9482 14.0971 74.9668C14.0718 74.9853 14.041 74.995 14.0096 74.9941L13.9718 74.993C13.9522 74.9923 13.9325 74.9916 13.9127 74.9916C12.9519 74.9946 12.021 75.3261 11.2744 75.931C10.5279 76.5358 10.0106 77.3778 9.80839 78.3171C9.80166 78.349 9.78416 78.3776 9.75883 78.3982C9.73349 78.4187 9.70186 78.4299 9.66924 78.4299H0.142196C0.104546 78.4298 0.0684722 78.4148 0.0418848 78.3882C0.0152974 78.3615 0.000366211 78.3254 0.000366211 78.2877C0.000366211 78.2501 0.0152974 78.214 0.0418848 78.1873C0.0684722 78.1607 0.104546 78.1456 0.142196 78.1455H9.55543C9.79241 77.1685 10.3498 76.299 11.1387 75.6758C11.9276 75.0526 12.9024 74.7116 13.9078 74.7072C14.2657 73.5495 14.9521 72.5207 15.8836 71.7457C16.8151 70.9707 17.9517 70.4829 19.1551 70.3415C20.3586 70.2002 21.5773 70.4114 22.663 70.9495C23.7487 71.4876 24.6548 72.3294 25.2712 73.3727C25.4111 73.3618 25.5483 73.3563 25.6803 73.3563C27.0189 73.3599 28.3069 73.8689 29.2863 74.7814C30.2658 75.694 30.8645 76.9427 30.9628 78.2778C30.9641 78.2964 30.9617 78.3151 30.9558 78.3328C30.9499 78.3505 30.9405 78.3669 30.9283 78.381C30.916 78.3951 30.9011 78.4067 30.8844 78.415C30.8677 78.4233 30.8495 78.4283 30.8309 78.4296C30.8275 78.4298 30.8241 78.4299 30.8208 78.4299Z" fill="#CBCBCB"/>
<path d="M29.1288 80.2533H5.80694C5.76922 80.2533 5.73305 80.2383 5.70639 80.2116C5.67972 80.185 5.66473 80.1488 5.66473 80.1111C5.66473 80.0734 5.67972 80.0372 5.70639 80.0105C5.73305 79.9839 5.76922 79.9689 5.80694 79.9689H29.1288C29.1665 79.9689 29.2027 79.9839 29.2293 80.0105C29.256 80.0372 29.271 80.0734 29.271 80.1111C29.271 80.1488 29.256 80.185 29.2293 80.2116C29.2027 80.2383 29.1665 80.2533 29.1288 80.2533Z" fill="#CBCBCB"/>
<path d="M11.4952 82.3152H3.67383C3.65513 82.3153 3.6366 82.3116 3.6193 82.3045C3.602 82.2974 3.58628 82.2869 3.57303 82.2737C3.55979 82.2605 3.54928 82.2448 3.54211 82.2275C3.53494 82.2103 3.53125 82.1917 3.53125 82.173C3.53125 82.1543 3.53494 82.1358 3.54211 82.1185C3.54928 82.1012 3.55979 82.0856 3.57303 82.0723C3.58628 82.0591 3.602 82.0487 3.6193 82.0415C3.6366 82.0344 3.65513 82.0308 3.67383 82.0308H11.4952C11.5328 82.0309 11.5689 82.0459 11.5955 82.0726C11.6221 82.0993 11.637 82.1354 11.637 82.173C11.637 82.2107 11.6221 82.2468 11.5955 82.2735C11.5689 82.3001 11.5328 82.3151 11.4952 82.3152Z" fill="#CBCBCB"/>
<path d="M18.8078 109.985C18.8078 115.766 12.7466 118.533 12.7466 118.533C12.7466 118.533 6.62331 115.766 6.49897 109.985C6.42589 106.587 9.25439 103.83 12.6534 103.83C13.4616 103.83 14.2619 103.99 15.0086 104.299C15.7552 104.608 16.4337 105.061 17.0052 105.633C17.5767 106.204 18.03 106.883 18.3393 107.63C18.6486 108.376 18.8078 109.177 18.8078 109.985Z" fill="#E5E5E5"/>
<path d="M14.7981 118.874H10.6952L10.1978 116.885H15.2954L14.7981 118.874Z" fill="#CBCBCB"/>
<path d="M14.6582 122.277H10.8351V124.269H14.6582V122.277Z" fill="white"/>
<path d="M14.6893 124.3H10.804V122.245H14.6893V124.3ZM10.8661 124.238H14.6272V122.308H10.8661V124.238Z" fill="#CBCBCB"/>
<path d="M13.5304 119.109H11.963L11.7831 118.826H13.7102L13.5304 119.109Z" fill="#CBCBCB"/>
<path d="M10.7884 118.875H10.7263V121.921H10.7884V118.875Z" fill="#CBCBCB"/>
<path d="M14.767 118.875H14.7049V121.921H14.767V118.875Z" fill="#CBCBCB"/>
<path d="M13.3698 116.851L13.3318 116.802C15.1277 115.417 17.2685 113.045 17.2685 109.606C17.27 108.402 16.9158 107.224 16.2505 106.221C15.5852 105.217 14.6383 104.432 13.5287 103.964L13.5529 103.907C14.6738 104.38 15.6303 105.172 16.3024 106.186C16.9744 107.2 17.3322 108.39 17.3307 109.606C17.3307 113.07 15.1767 115.458 13.3698 116.851Z" fill="#CBCBCB"/>
<path d="M11.3804 116.852L11.3425 116.802C13.1384 115.417 15.2792 113.045 15.2792 109.606C15.2797 108.41 14.9298 107.24 14.2727 106.241C13.6157 105.241 12.6802 104.456 11.5819 103.983L11.6066 103.925C12.716 104.404 13.661 105.197 14.3247 106.207C14.9884 107.216 15.3419 108.398 15.3414 109.606C15.3414 113.07 13.1874 115.458 11.3804 116.852Z" fill="#CBCBCB"/>
<path d="M13.9263 116.852C12.1194 115.458 9.96539 113.07 9.96539 109.606C9.9649 108.398 10.3184 107.216 10.9821 106.207C11.6458 105.197 12.5908 104.404 13.7002 103.925L13.7249 103.983C12.6266 104.456 11.6911 105.241 11.0341 106.241C10.377 107.24 10.0271 108.41 10.0276 109.606C10.0276 113.045 12.1684 115.417 13.9643 116.802L13.9263 116.852Z" fill="#CBCBCB"/>
<path d="M11.937 116.851C10.1301 115.458 7.97608 113.07 7.97608 109.606C7.97405 108.385 8.33431 107.191 9.01128 106.174C9.68824 105.158 10.6515 104.365 11.7791 103.896L11.8031 103.954C10.6868 104.418 9.7332 105.203 9.06304 106.209C8.39288 107.215 8.03623 108.398 8.03824 109.606C8.03824 113.045 10.1791 115.417 11.975 116.802L11.937 116.851Z" fill="#CBCBCB"/>
<path d="M12.6845 103.83H12.6223V116.885H12.6845V103.83Z" fill="#CBCBCB"/>
<path d="M11.953 121.825L10.813 122.965L10.857 123.009L11.9969 121.869L11.953 121.825Z" fill="#CBCBCB"/>
<path d="M12.5072 121.806L10.8126 123.588L10.8577 123.631L12.5522 121.849L12.5072 121.806Z" fill="#CBCBCB"/>
<path d="M15.0157 121.827H10.3532V122.387H15.0157V121.827Z" fill="white"/>
<path d="M15.0468 122.418H10.3222V121.796H15.0468V122.418ZM10.3843 122.356H14.9846V121.858H10.3843V122.356Z" fill="#CBCBCB"/>
<path d="M30.5379 95.333C30.5379 99.149 26.5372 100.975 26.5372 100.975C26.5372 100.975 22.4956 99.149 22.4135 95.333C22.3653 93.09 24.2322 91.2708 26.4757 91.2708C27.553 91.2708 28.5863 91.6988 29.3481 92.4606C30.1099 93.2224 30.5379 94.2556 30.5379 95.333Z" fill="#E5E5E5"/>
<path d="M27.8913 101.201H25.1831L24.8549 99.8875H28.2196L27.8913 101.201Z" fill="#CBCBCB"/>
<path d="M27.799 103.446H25.2755V104.761H27.799V103.446Z" fill="white"/>
<path d="M27.8195 104.782H25.255V103.426H27.8195V104.782ZM25.296 104.741H27.7784V103.467H25.296V104.741Z" fill="#CBCBCB"/>
<path d="M27.0545 101.355H26.0199L25.9012 101.169H27.1732L27.0545 101.355Z" fill="#CBCBCB"/>
<path d="M25.2447 101.201H25.2037V103.211H25.2447V101.201Z" fill="#CBCBCB"/>
<path d="M27.8708 101.201H27.8297V103.211H27.8708V101.201Z" fill="#CBCBCB"/>
<path d="M26.9485 99.8653L26.9235 99.8328C28.1088 98.9187 29.5219 97.3526 29.5219 95.0832C29.5228 94.2884 29.2891 93.511 28.8499 92.8485C28.4108 92.186 27.7858 91.6679 27.0534 91.3592L27.0694 91.3214C27.8092 91.6333 28.4406 92.1566 28.8841 92.8258C29.3277 93.4951 29.5639 94.2804 29.5629 95.0832C29.5629 97.3693 28.1412 98.9455 26.9485 99.8653Z" fill="#CBCBCB"/>
<path d="M25.6355 99.8653L25.6104 99.8328C26.7958 98.9187 28.2088 97.3527 28.2088 95.0833C28.2092 94.2938 27.9782 93.5215 27.5445 92.8618C27.1108 92.2021 26.4934 91.6839 25.7685 91.3712L25.7848 91.3336C26.517 91.6494 27.1407 92.1729 27.5788 92.8393C28.0169 93.5057 28.2502 94.2858 28.2499 95.0833C28.2499 97.3693 26.8282 98.9456 25.6355 99.8653Z" fill="#CBCBCB"/>
<path d="M27.3159 99.8653C26.1232 98.9456 24.7015 97.3693 24.7015 95.0833C24.7012 94.2858 24.9344 93.5057 25.3725 92.8393C25.8106 92.1729 26.4344 91.6494 27.1666 91.3336L27.1829 91.3712C26.458 91.6839 25.8405 92.2021 25.4068 92.8618C24.9731 93.5215 24.7422 94.2938 24.7425 95.0833C24.7425 97.3527 26.1555 98.9187 27.3409 99.8328L27.3159 99.8653Z" fill="#CBCBCB"/>
<path d="M26.0029 99.8653C24.8102 98.9455 23.3885 97.3693 23.3885 95.0832C23.3871 94.2772 23.6249 93.4888 24.0717 92.818C24.5186 92.1471 25.1543 91.6238 25.8986 91.3144L25.9145 91.3523C25.1776 91.6586 24.5482 92.1766 24.1059 92.8407C23.6636 93.5049 23.4282 94.2853 23.4295 95.0832C23.4295 97.3526 24.8425 98.9187 26.0279 99.8328L26.0029 99.8653Z" fill="#CBCBCB"/>
<path d="M26.4962 91.2708H26.4552V99.8875H26.4962V91.2708Z" fill="#CBCBCB"/>
<path d="M26.0134 103.148L25.261 103.9L25.29 103.929L26.0424 103.177L26.0134 103.148Z" fill="#CBCBCB"/>
<path d="M26.3792 103.135L25.2607 104.312L25.2904 104.34L26.4089 103.164L26.3792 103.135Z" fill="#CBCBCB"/>
<path d="M28.0349 103.15H24.9575V103.519H28.0349V103.15Z" fill="white"/>
<path d="M28.0554 103.539H24.937V103.129H28.0554V103.539ZM24.978 103.498H28.0144V103.17H24.978V103.498Z" fill="#CBCBCB"/>
<path d="M64.547 100.55C64.5727 100.55 64.5976 100.54 64.6164 100.523C64.6352 100.505 64.6467 100.481 64.6485 100.455C64.7152 99.5497 65.1213 98.7028 65.7857 98.0838C66.45 97.4649 67.3236 97.1196 68.2316 97.1172C68.3403 97.1172 68.4544 97.1227 68.5709 97.1336C68.5904 97.1355 68.61 97.1316 68.6274 97.1226C68.6447 97.1136 68.6591 97.0998 68.6689 97.0828C69.0859 96.3528 69.7088 95.7617 70.4597 95.3834C71.2106 95.0051 72.0562 94.8563 72.8911 94.9556C73.7261 95.0549 74.5132 95.3979 75.1544 95.9418C75.7957 96.4856 76.2625 97.2063 76.4967 98.0138C76.5029 98.0354 76.5161 98.0544 76.5343 98.0677C76.5524 98.081 76.5745 98.0879 76.597 98.0873L76.6241 98.0865C76.6382 98.086 76.6522 98.0856 76.6665 98.0856C77.3552 98.0877 78.0224 98.3253 78.5575 98.7588C79.0926 99.1924 79.4634 99.7959 79.6084 100.469C79.6132 100.492 79.6257 100.513 79.6439 100.527C79.6621 100.542 79.6847 100.55 79.7081 100.55H86.537C86.5504 100.55 86.5637 100.548 86.5761 100.542C86.5885 100.537 86.5998 100.53 86.6093 100.52C86.6188 100.511 86.6263 100.5 86.6314 100.487C86.6366 100.475 86.6392 100.462 86.6392 100.448C86.6392 100.435 86.6366 100.421 86.6314 100.409C86.6263 100.397 86.6188 100.385 86.6093 100.376C86.5998 100.366 86.5885 100.359 86.5761 100.354C86.5637 100.349 86.5504 100.346 86.537 100.346H79.7897C79.6198 99.6459 79.2203 99.0227 78.6548 98.576C78.0894 98.1293 77.3906 97.8848 76.67 97.8817C76.4134 97.0519 75.9214 96.3144 75.2537 95.7589C74.586 95.2034 73.7714 94.8537 72.9087 94.7524C72.0461 94.6511 71.1726 94.8025 70.3943 95.1882C69.6161 95.5739 68.9666 96.1773 68.5248 96.9251C68.4245 96.9173 68.3262 96.9133 68.2316 96.9133C67.2721 96.9159 66.3489 97.2808 65.6468 97.9349C64.9447 98.589 64.5156 99.484 64.4452 100.441C64.4442 100.454 64.4459 100.468 64.4502 100.48C64.4544 100.493 64.4611 100.505 64.4699 100.515C64.4787 100.525 64.4894 100.533 64.5013 100.539C64.5133 100.545 64.5264 100.549 64.5397 100.55C64.5421 100.55 64.5446 100.55 64.547 100.55Z" fill="#CBCBCB"/>
<path d="M65.7597 101.857H82.4765C82.5036 101.857 82.5295 101.846 82.5486 101.827C82.5677 101.808 82.5785 101.782 82.5785 101.755C82.5785 101.728 82.5677 101.702 82.5486 101.683C82.5295 101.664 82.5036 101.653 82.4765 101.653H65.7597C65.7327 101.653 65.7068 101.664 65.6877 101.683C65.6685 101.702 65.6578 101.728 65.6578 101.755C65.6578 101.782 65.6685 101.808 65.6877 101.827C65.7068 101.846 65.7327 101.857 65.7597 101.857Z" fill="#CBCBCB"/>
<path d="M78.3993 103.335H84.0055C84.0325 103.335 84.0584 103.324 84.0774 103.305C84.0965 103.286 84.1072 103.26 84.1072 103.233C84.1072 103.206 84.0965 103.18 84.0774 103.161C84.0584 103.142 84.0325 103.131 84.0055 103.131H78.3993C78.3859 103.131 78.3727 103.134 78.3603 103.139C78.3479 103.144 78.3367 103.152 78.3272 103.161C78.3178 103.171 78.3102 103.182 78.3051 103.194C78.3 103.207 78.2974 103.22 78.2974 103.233C78.2974 103.247 78.3 103.26 78.3051 103.272C78.3102 103.285 78.3178 103.296 78.3272 103.305C78.3367 103.315 78.3479 103.322 78.3603 103.327C78.3727 103.332 78.3859 103.335 78.3993 103.335Z" fill="#CBCBCB"/>
<path d="M52.3485 127.93H52.0129L51.8532 126.636H52.3485V127.93Z" fill="#9F616A"/>
<path d="M52.4341 128.255H51.3522V128.241C51.3523 128.13 51.3967 128.023 51.4757 127.944C51.5546 127.865 51.6616 127.82 51.7733 127.82H52.4341V128.255Z" fill="#2F2E41"/>
<path d="M56.6753 127.294L56.3876 127.467L55.5842 126.44L56.0087 126.185L56.6753 127.294Z" fill="#9F616A"/>
<path d="M55.9888 128.086L55.9817 128.074C55.9243 127.979 55.9073 127.864 55.9343 127.756C55.9613 127.647 56.0302 127.554 56.1258 127.496L56.6922 127.156L56.9161 127.529L55.9888 128.086Z" fill="#2F2E41"/>
<path d="M52.4357 127.663L52.4299 127.663C52.2667 127.662 52.1036 127.653 51.9414 127.635C51.8796 127.629 51.8125 127.622 51.7317 127.615L51.729 127.615C51.6738 127.598 51.6723 127.081 51.6957 125.312C51.7076 124.405 51.7212 123.378 51.7051 122.723L51.7049 122.717L51.7097 122.713C52.0016 122.457 52.3498 122.274 52.726 122.178C53.1021 122.083 53.4956 122.078 53.8741 122.163L53.88 122.164L53.8831 122.17C54.2129 122.728 54.7108 123.531 55.1923 124.309C56.2976 126.093 56.6137 126.618 56.5791 126.657L56.5749 126.66C56.4994 126.698 56.4427 126.727 56.3946 126.752C56.2039 126.851 56.0079 126.939 55.8077 127.017L55.7988 127.02L55.7923 127.013C54.6708 125.784 53.7375 124.411 53.1602 123.142C53.0928 123.576 53.0109 124.141 52.9244 124.739C52.6756 126.458 52.5074 127.59 52.4398 127.659L52.4357 127.663Z" fill="#2F2E41"/>
<path d="M73.8787 82.9107C73.8787 101.528 54.3603 110.437 54.3603 110.437C54.3603 110.437 34.6417 101.528 34.2413 82.9107C34.006 71.9677 43.1145 63.092 54.06 63.092C65.0056 63.092 73.8787 71.9652 73.8787 82.9107Z" fill="#94A89C"/>
<path d="M54.779 127.784H54.3675L54.1718 126.197H54.779V127.784Z" fill="#FFB7B7"/>
<path d="M54.0737 127.666H54.8671V128.166H53.5741C53.5741 128.1 53.587 128.035 53.6121 127.974C53.6372 127.914 53.674 127.859 53.7204 127.812C53.7668 127.766 53.8219 127.729 53.8825 127.704C53.9431 127.679 54.0081 127.666 54.0737 127.666Z" fill="#2F2E41"/>
<path d="M56.3227 127.784H55.9113L55.7155 126.197H56.3228L56.3227 127.784Z" fill="#FFB7B7"/>
<path d="M55.6173 127.666H56.4108V128.166H55.1178C55.1178 128.033 55.1704 127.906 55.2641 127.812C55.3578 127.719 55.4848 127.666 55.6173 127.666Z" fill="#2F2E41"/>
<path d="M54.7595 126.984L54.3066 126.963C54.268 126.961 54.2316 126.944 54.2049 126.916C54.1781 126.889 54.163 126.851 54.1628 126.813L54.1312 122.23C54.131 122.209 54.1356 122.187 54.1445 122.167C54.1535 122.147 54.1666 122.13 54.183 122.115C54.1994 122.101 54.2187 122.09 54.2395 122.084C54.2604 122.078 54.2823 122.077 54.3039 122.08L56.1158 122.343C56.1516 122.348 56.1844 122.366 56.2081 122.393C56.2319 122.42 56.245 122.455 56.2451 122.491L56.4782 126.737C56.4783 126.757 56.4745 126.777 56.467 126.795C56.4595 126.814 56.4484 126.831 56.4343 126.845C56.4203 126.859 56.4036 126.87 56.3852 126.878C56.3668 126.886 56.3471 126.889 56.3272 126.889H55.8389C55.8029 126.89 55.768 126.877 55.7406 126.853C55.7132 126.83 55.6952 126.798 55.6897 126.762C55.6897 126.762 55.3209 123.577 55.2702 123.579C55.2193 123.58 54.9167 126.851 54.9167 126.851C54.9122 126.888 54.8944 126.922 54.8668 126.946C54.8392 126.971 54.8036 126.984 54.7667 126.984C54.7643 126.984 54.7619 126.984 54.7595 126.984Z" fill="#2F2E41"/>
<path d="M60.9665 111.538H47.7541L46.1526 105.132H62.568L60.9665 111.538Z" fill="#3F3D56"/>
<path d="M60.5161 122.493H48.2045V128.909H60.5161V122.493Z" fill="white"/>
<path d="M60.6162 129.009H48.1044V122.393H60.6162V129.009ZM48.3046 128.809H60.416V122.593H48.3046V128.809Z" fill="#3F3D56"/>
<path d="M56.884 112.293H51.8366L51.2574 111.383H57.4632L56.884 112.293Z" fill="#3F3D56"/>
<path d="M48.0543 111.538H47.8542V121.347H48.0543V111.538Z" fill="#3F3D56"/>
<path d="M60.8664 111.538H60.6662V121.347H60.8664V111.538Z" fill="#3F3D56"/>
<path d="M56.3669 105.023L56.2447 104.865C62.028 100.405 68.9219 92.7644 68.9219 81.6924C68.9265 77.8146 67.7861 74.0217 65.6436 70.7895C63.5011 67.5573 60.452 65.0296 56.8786 63.5234L56.9566 63.3391C60.5663 64.8605 63.6463 67.4139 65.8105 70.6789C67.9747 73.9439 69.1267 77.7753 69.1221 81.6924C69.1221 92.8457 62.1858 100.536 56.3669 105.023Z" fill="#3F3D56"/>
<path d="M49.9608 105.023L49.8386 104.865C55.6219 100.405 62.5159 92.7644 62.5159 81.6924C62.5174 77.8407 61.3907 74.0729 59.2747 70.8543C57.1588 67.6358 54.1465 65.1076 50.6097 63.582L50.6891 63.3983C54.2617 64.9393 57.3047 67.4932 59.442 70.7444C61.5794 73.9955 62.7176 77.8016 62.716 81.6924C62.716 92.8458 55.7797 100.536 49.9608 105.023Z" fill="#3F3D56"/>
<path d="M58.1591 105.023C52.3403 100.536 45.404 92.8457 45.404 81.6924C45.4024 77.8016 46.5406 73.9955 48.678 70.7443C50.8154 67.4931 53.8584 64.9392 57.4311 63.3982L57.5105 63.582C53.9737 65.1075 50.9613 67.6357 48.8453 70.8543C46.7294 74.0728 45.6026 77.8407 45.6042 81.6924C45.6042 92.7644 52.4981 100.405 58.2814 104.865L58.1591 105.023Z" fill="#3F3D56"/>
<path d="M51.7531 105.023C45.9343 100.536 38.998 92.8458 38.998 81.6924C38.9914 77.7598 40.1515 73.9136 42.3315 70.6405C44.5115 67.3675 47.6134 64.8146 51.2447 63.3049L51.3218 63.4896C47.727 64.9841 44.6563 67.5114 42.4982 70.7516C40.3401 73.9918 39.1917 77.7993 39.1981 81.6924C39.1981 92.7645 46.0921 100.405 51.8754 104.865L51.7531 105.023Z" fill="#3F3D56"/>
<path d="M54.1601 63.092H53.9599V105.132H54.1601V63.092Z" fill="#3F3D56"/>
<path d="M51.8046 121.038L48.1337 124.709L48.2753 124.851L51.9461 121.18L51.8046 121.038Z" fill="#3F3D56"/>
<path d="M53.5891 120.977L48.1323 126.716L48.2774 126.854L53.7342 121.115L53.5891 120.977Z" fill="#3F3D56"/>
<path d="M61.6672 121.047H46.653V122.848H61.6672V121.047Z" fill="white"/>
<path d="M61.7673 122.948H46.5529V120.947H61.7673V122.948ZM46.7531 122.748H61.5671V121.147H46.7531V122.748Z" fill="#3F3D56"/>
<path d="M43.9734 111.961C43.9476 111.961 43.9228 111.951 43.904 111.933C43.8851 111.916 43.8737 111.892 43.8719 111.866C43.8052 110.961 43.3991 110.114 42.7347 109.495C42.0704 108.876 41.1968 108.53 40.2888 108.528C40.1801 108.528 40.066 108.533 39.9495 108.544C39.93 108.546 39.9104 108.542 39.893 108.533C39.8757 108.524 39.8613 108.511 39.8515 108.494C39.4344 107.764 38.8116 107.172 38.0607 106.794C37.3098 106.416 36.4642 106.267 35.6292 106.366C34.7943 106.466 34.0071 106.809 33.3659 107.353C32.7247 107.896 32.2579 108.617 32.0237 109.425C32.0175 109.446 32.0043 109.465 31.9861 109.478C31.968 109.492 31.9459 109.499 31.9234 109.498L31.8963 109.497C31.8822 109.497 31.8681 109.496 31.8539 109.496C31.1652 109.498 30.498 109.736 29.9629 110.17C29.4277 110.603 29.057 111.207 28.912 111.88C28.9072 111.903 28.8947 111.923 28.8765 111.938C28.8583 111.953 28.8357 111.961 28.8123 111.961H21.9834C21.97 111.961 21.9567 111.958 21.9443 111.953C21.9319 111.948 21.9206 111.941 21.9111 111.931C21.9016 111.922 21.8941 111.91 21.889 111.898C21.8838 111.886 21.8812 111.872 21.8812 111.859C21.8812 111.846 21.8838 111.832 21.889 111.82C21.8941 111.807 21.9016 111.796 21.9111 111.787C21.9206 111.777 21.9319 111.77 21.9443 111.765C21.9567 111.76 21.97 111.757 21.9834 111.757H28.7307C28.9006 111.057 29.3001 110.433 29.8656 109.987C30.431 109.54 31.1298 109.296 31.8504 109.292C32.1069 108.463 32.599 107.725 33.2667 107.17C33.9344 106.614 34.749 106.264 35.6117 106.163C36.4743 106.062 37.3478 106.213 38.126 106.599C38.9043 106.985 39.5538 107.588 39.9956 108.336C40.0958 108.328 40.1942 108.324 40.2888 108.324C41.2483 108.327 42.1715 108.692 42.8736 109.346C43.5756 110 44.0048 110.895 44.0752 111.852C44.0762 111.865 44.0745 111.879 44.0702 111.891C44.066 111.904 44.0593 111.916 44.0505 111.926C44.0417 111.936 44.031 111.944 44.019 111.95C44.0071 111.956 43.994 111.96 43.9807 111.961C43.9782 111.961 43.9758 111.961 43.9734 111.961Z" fill="#CBCBCB"/>
<path d="M42.7606 113.268H26.0438C26.0304 113.268 26.0171 113.265 26.0047 113.26C25.9923 113.255 25.9811 113.247 25.9716 113.238C25.9621 113.229 25.9545 113.217 25.9494 113.205C25.9442 113.193 25.9416 113.179 25.9416 113.166C25.9416 113.152 25.9442 113.139 25.9494 113.127C25.9545 113.114 25.9621 113.103 25.9716 113.094C25.9811 113.084 25.9923 113.077 26.0047 113.072C26.0171 113.066 26.0304 113.064 26.0438 113.064H42.7606C42.7877 113.064 42.8136 113.075 42.8327 113.094C42.8518 113.113 42.8626 113.139 42.8626 113.166C42.8626 113.193 42.8518 113.219 42.8327 113.238C42.8136 113.257 42.7877 113.268 42.7606 113.268Z" fill="#CBCBCB"/>
<path d="M30.1211 114.746H24.5148C24.5014 114.746 24.4881 114.743 24.4757 114.738C24.4633 114.733 24.4521 114.726 24.4426 114.716C24.4331 114.707 24.4255 114.695 24.4204 114.683C24.4152 114.671 24.4126 114.657 24.4126 114.644C24.4126 114.63 24.4152 114.617 24.4204 114.605C24.4255 114.592 24.4331 114.581 24.4426 114.572C24.4521 114.562 24.4633 114.555 24.4757 114.55C24.4881 114.544 24.5014 114.542 24.5148 114.542H30.1211C30.1345 114.542 30.1478 114.544 30.1602 114.55C30.1726 114.555 30.1839 114.562 30.1934 114.572C30.2029 114.581 30.2104 114.592 30.2156 114.605C30.2207 114.617 30.2233 114.63 30.2233 114.644C30.2233 114.657 30.2207 114.671 30.2156 114.683C30.2104 114.695 30.2029 114.707 30.1934 114.716C30.1839 114.726 30.1726 114.733 30.1602 114.738C30.1478 114.743 30.1345 114.746 30.1211 114.746Z" fill="#CBCBCB"/>
</g>
<defs>
<clipPath id="clip0_443_769">
<rect width="434.24" height="350" fill="white" transform="translate(81.4546)"/>
</clipPath>
<clipPath id="clip1_443_769">
<rect width="233.212" height="178.918" fill="white" transform="translate(0 170.913)"/>
</clipPath>
<clipPath id="clip2_443_769">
<rect width="86.6389" height="65.917" fill="white" transform="translate(0 63.092)"/>
</clipPath>
</defs>
</svg>
