<svg width="231" height="52" viewBox="0 0 231 52" fill="none" xmlns="http://www.w3.org/2000/svg">
<rect width="52" height="52" rx="10" fill="#607A53"/>
<rect y="8" width="52" height="44" rx="10" fill="#94A89C"/>
<path d="M36.88 21.6667C35.4666 20.2496 33.5931 19.3847 31.5978 19.2282C29.6025 19.0717 27.617 19.6339 26 20.8133C24.3036 19.5515 22.192 18.9793 20.0906 19.212C17.9892 19.4447 16.0539 20.465 14.6747 22.0674C13.2954 23.6698 12.5745 25.7353 12.6571 27.848C12.7397 29.9607 13.6198 31.9635 15.12 33.4533L23.4 41.7467C24.0934 42.429 25.0272 42.8115 26 42.8115C26.9728 42.8115 27.9067 42.429 28.6 41.7467L36.88 33.4533C38.4368 31.887 39.3106 29.7684 39.3106 27.56C39.3106 25.3516 38.4368 23.233 36.88 21.6667ZM35 31.6133L26.72 39.8933C26.6258 39.9885 26.5137 40.064 26.3901 40.1155C26.2665 40.1671 26.1339 40.1936 26 40.1936C25.8661 40.1936 25.7336 40.1671 25.61 40.1155C25.4864 40.064 25.3742 39.9885 25.28 39.8933L17 31.5733C15.9544 30.5044 15.3688 29.0686 15.3688 27.5733C15.3688 26.078 15.9544 24.6422 17 23.5733C18.0656 22.5213 19.5027 21.9314 21 21.9314C22.4974 21.9314 23.9345 22.5213 25 23.5733C25.124 23.6983 25.2714 23.7975 25.4339 23.8652C25.5964 23.9329 25.7707 23.9677 25.9467 23.9677C26.1227 23.9677 26.297 23.9329 26.4595 23.8652C26.6219 23.7975 26.7694 23.6983 26.8934 23.5733C27.9589 22.5213 29.396 21.9314 30.8934 21.9314C32.3907 21.9314 33.8278 22.5213 34.8934 23.5733C35.9534 24.6282 36.5581 26.0562 36.5781 27.5516C36.598 29.0469 36.0315 30.4906 35 31.5733V31.6133Z" fill="white"/>
<path d="M91.8911 36H86.4031L79.0951 24.968V36H73.6071V16.26H79.0951L86.4031 27.432V16.26H91.8911V36ZM94.1212 28.132C94.1212 26.508 94.4106 25.0893 94.9892 23.876C95.5866 22.6627 96.3892 21.7293 97.3972 21.076C98.4239 20.4227 99.5626 20.096 100.813 20.096C101.896 20.096 102.829 20.3107 103.613 20.74C104.397 21.1693 105.004 21.748 105.433 22.476V20.292H110.921V36H105.433V33.816C105.004 34.544 104.388 35.1227 103.585 35.552C102.801 35.9813 101.877 36.196 100.813 36.196C99.5626 36.196 98.4239 35.8693 97.3972 35.216C96.3892 34.5627 95.5866 33.6293 94.9892 32.416C94.4106 31.184 94.1212 29.756 94.1212 28.132ZM105.433 28.132C105.433 27.124 105.153 26.3307 104.593 25.752C104.052 25.1733 103.38 24.884 102.577 24.884C101.756 24.884 101.075 25.1733 100.533 25.752C99.9919 26.312 99.7212 27.1053 99.7212 28.132C99.7212 29.14 99.9919 29.9427 100.533 30.54C101.075 31.1187 101.756 31.408 102.577 31.408C103.38 31.408 104.052 31.1187 104.593 30.54C105.153 29.9613 105.433 29.1587 105.433 28.132ZM124.324 20.152C126.135 20.152 127.572 20.7587 128.636 21.972C129.7 23.1667 130.232 24.7907 130.232 26.844V36H124.744V27.572C124.744 26.676 124.511 25.976 124.044 25.472C123.578 24.9493 122.952 24.688 122.168 24.688C121.347 24.688 120.703 24.9493 120.236 25.472C119.77 25.976 119.536 26.676 119.536 27.572V36H114.048V20.292H119.536V22.532C120.022 21.8227 120.675 21.2533 121.496 20.824C122.318 20.376 123.26 20.152 124.324 20.152ZM132.348 28.132C132.348 26.508 132.637 25.0893 133.216 23.876C133.813 22.6627 134.625 21.7293 135.652 21.076C136.678 20.4227 137.817 20.096 139.068 20.096C140.076 20.096 140.972 20.3107 141.756 20.74C142.558 21.1507 143.184 21.72 143.632 22.448V15.28H149.148V36H143.632V33.816C143.202 34.544 142.596 35.1227 141.812 35.552C141.028 35.9813 140.104 36.196 139.04 36.196C137.789 36.196 136.65 35.8693 135.624 35.216C134.616 34.5627 133.813 33.6293 133.216 32.416C132.637 31.184 132.348 29.756 132.348 28.132ZM143.66 28.132C143.66 27.124 143.38 26.3307 142.82 25.752C142.278 25.1733 141.606 24.884 140.804 24.884C139.982 24.884 139.301 25.1733 138.76 25.752C138.218 26.312 137.948 27.1053 137.948 28.132C137.948 29.14 138.218 29.9427 138.76 30.54C139.301 31.1187 139.982 31.408 140.804 31.408C141.606 31.408 142.278 31.1187 142.82 30.54C143.38 29.9613 143.66 29.1587 143.66 28.132ZM151.379 28.132C151.379 26.508 151.668 25.0893 152.247 23.876C152.844 22.6627 153.647 21.7293 154.655 21.076C155.682 20.4227 156.82 20.096 158.071 20.096C159.154 20.096 160.087 20.3107 160.871 20.74C161.655 21.1693 162.262 21.748 162.691 22.476V20.292H168.179V36H162.691V33.816C162.262 34.544 161.646 35.1227 160.843 35.552C160.059 35.9813 159.135 36.196 158.071 36.196C156.82 36.196 155.682 35.8693 154.655 35.216C153.647 34.5627 152.844 33.6293 152.247 32.416C151.668 31.184 151.379 29.756 151.379 28.132ZM162.691 28.132C162.691 27.124 162.411 26.3307 161.851 25.752C161.31 25.1733 160.638 24.884 159.835 24.884C159.014 24.884 158.332 25.1733 157.791 25.752C157.25 26.312 156.979 27.1053 156.979 28.132C156.979 29.14 157.25 29.9427 157.791 30.54C158.332 31.1187 159.014 31.408 159.835 31.408C160.638 31.408 161.31 31.1187 161.851 30.54C162.411 29.9613 162.691 29.1587 162.691 28.132ZM186.342 36L184.746 34.488C182.973 35.7013 180.854 36.308 178.39 36.308C176.841 36.308 175.488 36.056 174.33 35.552C173.192 35.048 172.305 34.3387 171.67 33.424C171.054 32.5093 170.746 31.4547 170.746 30.26C170.746 29.0653 171.054 27.9827 171.67 27.012C172.305 26.0227 173.248 25.22 174.498 24.604C174.032 24.0067 173.696 23.4373 173.49 22.896C173.285 22.3547 173.182 21.776 173.182 21.16C173.182 20.1893 173.434 19.3027 173.938 18.5C174.442 17.6973 175.18 17.0627 176.15 16.596C177.14 16.1107 178.306 15.868 179.65 15.868C181.013 15.868 182.17 16.12 183.122 16.624C184.074 17.1093 184.784 17.7627 185.25 18.584C185.736 19.3867 185.969 20.264 185.95 21.216H180.882C180.882 20.7867 180.761 20.46 180.518 20.236C180.276 20.012 179.977 19.9 179.622 19.9C179.249 19.9 178.932 20.012 178.67 20.236C178.428 20.4413 178.306 20.7307 178.306 21.104C178.306 21.7573 178.773 22.5507 179.706 23.484L184.326 27.992C184.494 27.656 184.672 27.2547 184.858 26.788L185.418 25.78H190.85L190.038 27.348C189.366 28.9533 188.629 30.3067 187.826 31.408L192.53 36H186.342ZM178.754 31.912C179.744 31.912 180.621 31.6973 181.386 31.268L177.494 27.544C177.009 27.8427 176.645 28.188 176.402 28.58C176.16 28.972 176.038 29.3733 176.038 29.784C176.038 30.3813 176.281 30.8853 176.766 31.296C177.252 31.7067 177.914 31.912 178.754 31.912ZM206.711 22.756C206.394 22.2333 205.955 21.832 205.395 21.552C204.854 21.272 204.21 21.132 203.463 21.132C202.082 21.132 200.99 21.58 200.187 22.476C199.403 23.372 199.011 24.576 199.011 26.088C199.011 27.7867 199.431 29.084 200.271 29.98C201.13 30.8573 202.371 31.296 203.995 31.296C205.918 31.296 207.29 30.428 208.111 28.692H202.595V24.744H212.843V30.064C212.414 31.1093 211.779 32.0893 210.939 33.004C210.118 33.9187 209.072 34.6747 207.803 35.272C206.534 35.8507 205.087 36.14 203.463 36.14C201.484 36.14 199.73 35.72 198.199 34.88C196.687 34.0213 195.511 32.836 194.671 31.324C193.85 29.7933 193.439 28.048 193.439 26.088C193.439 24.1467 193.85 22.42 194.671 20.908C195.511 19.3773 196.687 18.192 198.199 17.352C199.711 16.4933 201.456 16.064 203.435 16.064C205.918 16.064 207.971 16.6613 209.595 17.856C211.219 19.0507 212.227 20.684 212.619 22.756H206.711ZM218.074 18.836C217.104 18.836 216.32 18.5747 215.722 18.052C215.144 17.5107 214.854 16.8387 214.854 16.036C214.854 15.2147 215.144 14.5333 215.722 13.992C216.32 13.4507 217.104 13.18 218.074 13.18C219.026 13.18 219.792 13.4507 220.37 13.992C220.968 14.5333 221.266 15.2147 221.266 16.036C221.266 16.8387 220.968 17.5107 220.37 18.052C219.792 18.5747 219.026 18.836 218.074 18.836ZM220.79 20.292V36H215.302V20.292H220.79ZM229.404 15.28V36H223.916V15.28H229.404Z" fill="#49516F"/>
</svg>
