<svg width="76" height="82" viewBox="0 0 76 82" fill="none" xmlns="http://www.w3.org/2000/svg">
<rect x="33.5" y="6" width="40" height="70" rx="20" stroke="#49516F" stroke-width="4"/>
<rect x="51.8999" y="18.25" width="4" height="21" rx="2" fill="#94A89C"/>
<path d="M12.868 74.4306C13.3533 74.4306 13.806 74.5472 14.226 74.7806C14.6367 75.0139 14.968 75.3686 15.22 75.8446C15.472 76.3206 15.598 76.9039 15.598 77.5946C15.598 78.2666 15.4813 78.8686 15.248 79.4006C15.0053 79.9326 14.6693 80.3572 14.24 80.6746C13.8107 80.9919 13.316 81.1739 12.756 81.2206V79.5126C13.1853 79.4659 13.554 79.2839 13.862 78.9666C14.17 78.6399 14.324 78.2059 14.324 77.6646C14.324 77.1792 14.1933 76.8059 13.932 76.5446C13.6707 76.2739 13.3347 76.1386 12.924 76.1386C12.5693 76.1386 12.28 76.2366 12.056 76.4326C11.8227 76.6286 11.6407 76.8712 11.51 77.1606C11.3793 77.4499 11.23 77.8466 11.062 78.3506C10.866 78.9666 10.67 79.4706 10.474 79.8626C10.278 80.2452 9.99333 80.5719 9.62 80.8426C9.24667 81.1132 8.75667 81.2486 8.15 81.2486C7.618 81.2486 7.15133 81.1179 6.75 80.8566C6.34867 80.5952 6.04067 80.2219 5.826 79.7366C5.602 79.2512 5.49 78.6912 5.49 78.0566C5.49 77.0486 5.73267 76.2506 6.218 75.6626C6.70333 75.0652 7.338 74.7246 8.122 74.6406V76.3626C7.74867 76.4279 7.43133 76.6052 7.17 76.8946C6.89933 77.1746 6.764 77.5619 6.764 78.0566C6.764 78.5046 6.88067 78.8639 7.114 79.1346C7.338 79.4052 7.66467 79.5406 8.094 79.5406C8.43 79.5406 8.71 79.4472 8.934 79.2606C9.14867 79.0739 9.32133 78.8406 9.452 78.5606C9.57333 78.2712 9.718 77.8792 9.886 77.3846C10.082 76.7592 10.2827 76.2506 10.488 75.8586C10.684 75.4572 10.9733 75.1212 11.356 74.8506C11.7387 74.5706 12.2427 74.4306 12.868 74.4306ZM7.688 69.4028C7.688 68.4042 7.954 67.5782 8.486 66.9248C9.00867 66.2715 9.72267 65.8655 10.628 65.7068V67.4008C10.1427 67.4942 9.76467 67.7228 9.494 68.0868C9.214 68.4415 9.074 68.8895 9.074 69.4308C9.074 70.0468 9.29333 70.5602 9.732 70.9708C10.1613 71.3815 10.796 71.5868 11.636 71.5868C12.476 71.5868 13.1153 71.3815 13.554 70.9708C13.9927 70.5602 14.212 70.0468 14.212 69.4308C14.212 68.8895 14.072 68.4415 13.792 68.0868C13.512 67.7228 13.1293 67.4942 12.644 67.4008V65.7068C13.5493 65.8655 14.268 66.2715 14.8 66.9248C15.332 67.5782 15.598 68.4042 15.598 69.4028C15.598 70.1495 15.4393 70.8122 15.122 71.3908C14.8047 71.9602 14.3473 72.4082 13.75 72.7348C13.1527 73.0615 12.448 73.2248 11.636 73.2248C10.8333 73.2248 10.1333 73.0615 9.536 72.7348C8.93867 72.4082 8.48133 71.9602 8.164 71.3908C7.84667 70.8122 7.688 70.1495 7.688 69.4028ZM9.298 62.5689C8.794 62.3075 8.39733 61.9342 8.108 61.4489C7.80933 60.9635 7.66 60.4035 7.66 59.7689H9.396V60.2449C9.396 60.9449 9.56867 61.5095 9.914 61.9389C10.25 62.3589 10.81 62.5689 11.594 62.5689H15.5V64.1649H7.786V62.5689H9.298ZM7.688 55.0451C7.688 54.2984 7.84667 53.6264 8.164 53.0291C8.48133 52.4317 8.93867 51.9651 9.536 51.6291C10.1333 51.2931 10.8333 51.1251 11.636 51.1251C12.448 51.1251 13.1527 51.2931 13.75 51.6291C14.3473 51.9651 14.8047 52.4317 15.122 53.0291C15.4393 53.6264 15.598 54.2984 15.598 55.0451C15.598 55.7917 15.4393 56.4637 15.122 57.0611C14.8047 57.6491 14.3473 58.1157 13.75 58.4611C13.1433 58.7971 12.4387 58.9651 11.636 58.9651C10.8333 58.9651 10.1333 58.7971 9.536 58.4611C8.93867 58.1157 8.48133 57.6491 8.164 57.0611C7.84667 56.4637 7.688 55.7917 7.688 55.0451ZM9.074 55.0451C9.074 55.4557 9.16733 55.8337 9.354 56.1791C9.54067 56.5244 9.83 56.8044 10.222 57.0191C10.6047 57.2244 11.076 57.3271 11.636 57.3271C12.2053 57.3271 12.6813 57.2244 13.064 57.0191C13.4467 56.8044 13.7313 56.5244 13.918 56.1791C14.1047 55.8337 14.198 55.4557 14.198 55.0451C14.198 54.6344 14.1047 54.2564 13.918 53.9111C13.7313 53.5657 13.4467 53.2904 13.064 53.0851C12.6813 52.8704 12.2053 52.7631 11.636 52.7631C11.076 52.7631 10.6047 52.8704 10.222 53.0851C9.83 53.2904 9.54067 53.5657 9.354 53.9111C9.16733 54.2564 9.074 54.6344 9.074 55.0451ZM5.14 47.9946H15.5V49.5906H5.14V47.9946ZM5.14 44.4673H15.5V46.0633H5.14V44.4673ZM10.544 30.7707C11.5427 30.7707 12.4153 30.976 13.162 31.3867C13.8993 31.788 14.4733 32.3807 14.884 33.1647C15.2947 33.9394 15.5 34.868 15.5 35.9507L15.5 39.2547H5.616V35.9507C5.616 34.868 5.82133 33.9394 6.232 33.1647C6.63333 32.3807 7.20267 31.788 7.94 31.3867C8.67733 30.976 9.54533 30.7707 10.544 30.7707ZM14.058 36.0767C14.058 34.8914 13.75 33.9814 13.134 33.3467C12.518 32.712 11.6547 32.3947 10.544 32.3947C9.43333 32.3947 8.57 32.712 7.954 33.3467C7.338 33.9814 7.03 34.8914 7.03 36.0767V37.6587H14.058L14.058 36.0767ZM7.688 25.6369C7.688 24.8902 7.84667 24.2182 8.164 23.6209C8.48133 23.0235 8.93867 22.5569 9.536 22.2209C10.1333 21.8849 10.8333 21.7169 11.636 21.7169C12.448 21.7169 13.1527 21.8849 13.75 22.2209C14.3473 22.5569 14.8047 23.0235 15.122 23.6209C15.4393 24.2182 15.598 24.8902 15.598 25.6369C15.598 26.3835 15.4393 27.0555 15.122 27.6529C14.8047 28.2409 14.3473 28.7075 13.75 29.0529C13.1433 29.3889 12.4387 29.5569 11.636 29.5569C10.8333 29.5569 10.1333 29.3889 9.536 29.0529C8.93867 28.7075 8.48133 28.2409 8.164 27.6529C7.84667 27.0555 7.688 26.3835 7.688 25.6369ZM9.074 25.6369C9.074 26.0475 9.16733 26.4255 9.354 26.7709C9.54067 27.1162 9.83 27.3962 10.222 27.6109C10.6047 27.8162 11.076 27.9189 11.636 27.9189C12.2053 27.9189 12.6813 27.8162 13.064 27.6109C13.4467 27.3962 13.7313 27.1162 13.918 26.7709C14.1047 26.4255 14.198 26.0475 14.198 25.6369C14.198 25.2262 14.1047 24.8482 13.918 24.5029C13.7313 24.1575 13.4467 23.8822 13.064 23.6769C12.6813 23.4622 12.2053 23.3549 11.636 23.3549C11.076 23.3549 10.6047 23.4622 10.222 23.6769C9.83 23.8822 9.54067 24.1575 9.354 24.5029C9.16733 24.8482 9.074 25.2262 9.074 25.6369ZM7.786 9.37444L15.5 11.5164V13.2804L9.536 15.1844L15.5 17.1164V18.8664L7.786 21.0084V19.3984L14.03 17.9284L7.786 15.9964L7.786 14.3164L14.03 12.3564L7.786 10.8864V9.37444ZM7.66 3.97591C7.66 3.07991 7.94933 2.36124 8.528 1.81991C9.10667 1.27857 9.93267 1.00791 11.006 1.00791H15.5L15.5 2.60391H11.174C10.4833 2.60391 9.95133 2.78124 9.578 3.13591C9.19533 3.49057 9.004 3.97591 9.004 4.59191C9.004 5.22657 9.20933 5.73524 9.62 6.11791C10.0213 6.50057 10.614 6.69191 11.398 6.69191H15.5V8.28791H7.786V6.69191H9.48C8.90133 6.48657 8.45333 6.14124 8.136 5.65591C7.81867 5.17057 7.66 4.61057 7.66 3.97591Z" fill="#49516F"/>
</svg>
